<svg xmlns="http://www.w3.org/2000/svg" viewBox="0 0 500 500"><g id="freepik--Floor--inject-77"><path id="freepik--floor--inject-77" d="M77.66,245.62c-95.18,54.95-95.17,144.05,0,199s249.49,54.95,344.67,0,95.17-144,0-199S172.84,190.67,77.66,245.62Z" style="fill:#fafafa"></path></g><g id="freepik--Window--inject-77"><g id="freepik--window--inject-77"><g id="freepik--window--inject-77"><g id="freepik--Frame--inject-77"><polygon points="158.32 36.77 161.34 38.45 161.34 170.78 158.32 169.1 158.32 36.77" style="fill:#fafafa"></polygon><polygon points="158.32 169.1 158.32 40.2 37.31 110.06 37.34 238.96 158.32 169.1" style="fill:#fff"></polygon><path d="M166.93,174V28.76L31.72,106.83V252.08ZM37.31,242.39V110.06l124-71.61V170.78Z" style="fill:#f0f0f0"></path><polygon points="161.34 170.78 158.32 169.1 37.34 238.96 37.31 242.39 161.34 170.78" style="fill:#e0e0e0"></polygon><polygon points="127.56 57.96 130.57 56.22 130.57 188.55 127.56 186.86 127.56 57.96" style="fill:#fafafa"></polygon><polygon points="59.58 97.2 62.6 95.46 62.6 227.79 59.58 226.11 59.58 97.2" style="fill:#fafafa"></polygon><polygon points="31.72 252.08 28.72 250.34 28.72 105.09 31.72 106.83 31.72 252.08" style="fill:#e0e0e0"></polygon><polygon points="28.72 105.09 31.72 106.83 166.93 28.77 163.93 27.02 28.72 105.09" style="fill:#fafafa"></polygon><polygon points="37.31 170.39 37.31 173.86 161.35 102.25 158.35 100.5 37.31 170.39" style="fill:#e0e0e0"></polygon></g><polygon points="37.32 180.32 37.31 173.86 161.35 102.25 161.34 108.72 37.32 180.32" style="fill:#f0f0f0"></polygon><polygon points="62.6 234.25 68.19 231.03 68.19 85.78 62.6 89 62.6 234.25" style="fill:#f0f0f0"></polygon><polygon points="130.56 195.01 136.15 191.79 136.15 46.54 130.56 49.76 130.56 195.01" style="fill:#f0f0f0"></polygon><polygon points="62.6 159.26 59.58 157.53 59.58 97.2 62.6 95.46 62.6 159.26" style="fill:#fafafa"></polygon><polygon points="130.54 120.03 127.53 118.3 127.53 57.97 130.54 56.23 130.54 120.03" style="fill:#fafafa"></polygon></g></g></g><g id="freepik--Pictures--inject-77"><g id="freepik--Picture--inject-77"><g id="freepik--frame--inject-77"><polygon points="438.84 162.22 437.26 163.16 404.87 144.46 406.44 143.52 438.84 162.22" style="fill:#fafafa"></polygon><polygon points="406.44 143.52 437.26 161.3 437.26 129.03 406.44 111.25 406.44 143.52" style="fill:#fff"></polygon><path d="M401.88,146.18l38.36,22.14v-41l-38.36-22.14Zm3-35.85,32.4,18.7v34.13l-32.4-18.7Z" style="fill:#f0f0f0"></path><polygon points="404.87 144.46 406.44 143.52 406.44 111.25 404.87 110.33 404.87 144.46" style="fill:#e0e0e0"></polygon><polygon points="401.88 105.17 403.49 104.25 441.84 126.4 440.24 127.31 401.88 105.17" style="fill:#fafafa"></polygon><polygon points="441.84 126.4 440.24 127.31 440.24 168.32 441.84 167.4 441.84 126.4" style="fill:#e0e0e0"></polygon></g><g id="freepik--Land--inject-77"><polygon points="407.65 142.55 436.06 158.95 436.06 150.75 428.95 134.35 424.53 138.45 426.12 145.32 416.31 124.34 407.65 134.35 407.65 142.55" style="fill:#f0f0f0"></polygon><path d="M424.8,126.43a4.65,4.65,0,0,1,2.1,3.64c0,1.34-.94,1.88-2.1,1.21a4.66,4.66,0,0,1-2.11-3.64C422.69,126.3,423.64,125.76,424.8,126.43Z" style="fill:#f0f0f0"></path></g></g><g id="freepik--picture--inject-77"><g id="freepik--frame--inject-77"><polygon points="438.84 112.02 437.26 112.96 404.87 94.26 406.44 93.32 438.84 112.02" style="fill:#fafafa"></polygon><polygon points="406.44 93.32 437.26 111.11 437.26 78.83 406.44 61.06 406.44 93.32" style="fill:#fff"></polygon><path d="M401.88,96l38.36,22.14v-41L401.88,55Zm3-35.85,32.4,18.7V113l-32.4-18.7Z" style="fill:#f0f0f0"></path><polygon points="404.87 94.26 406.44 93.32 406.44 61.06 404.86 60.13 404.87 94.26" style="fill:#e0e0e0"></polygon><polygon points="401.88 54.97 403.49 54.05 441.84 76.2 440.24 77.11 401.88 54.97" style="fill:#fafafa"></polygon><polygon points="441.84 76.2 440.24 77.11 440.24 118.12 441.84 117.2 441.84 76.2" style="fill:#e0e0e0"></polygon></g><g id="freepik--land--inject-77"><polygon points="407.65 92.35 436.06 108.76 436.06 100.56 428.95 84.15 424.53 88.25 426.12 95.13 416.31 74.15 407.65 84.15 407.65 92.35" style="fill:#f0f0f0"></polygon><path d="M424.8,76.23a4.65,4.65,0,0,1,2.1,3.64c0,1.34-.94,1.88-2.1,1.21a4.66,4.66,0,0,1-2.11-3.64C422.69,76.1,423.64,75.56,424.8,76.23Z" style="fill:#f0f0f0"></path></g></g></g><g id="freepik--Shadows--inject-77"><path id="freepik--Shadow--inject-77" d="M384.87,297.49l46-26.5a1.18,1.18,0,0,0,0-2.24l-63.87-37a4.29,4.29,0,0,0-3.87,0l-46,26.51a1.18,1.18,0,0,0,0,2.24l63.88,37A4.26,4.26,0,0,0,384.87,297.49Z" style="fill:#e0e0e0"></path><path id="freepik--shadow--inject-77" d="M219.36,228.76,33.15,336.15c-2.72,1.57-2.72,4.11,0,5.68L265.4,475.56a10.91,10.91,0,0,0,9.86,0L461.47,368.17c2.72-1.57,2.72-4.12,0-5.69L229.22,228.76A10.91,10.91,0,0,0,219.36,228.76Z" style="fill:#e0e0e0"></path><path id="freepik--shadow--inject-77" d="M60.46,392c-.81,3.75.82,7.6,2.9,10.83.9,1.38,1.92,3.09,1.17,4.56-.57,1.15-2,1.57-3.18,1.94a40.42,40.42,0,0,0-9.72,4.42c-1.39.87-2.82,1.95-3.25,3.53s.79,3.62,2.4,3.36c.48,2.14,3.07,3.22,5.23,2.88s4-1.69,5.84-2.9a59.19,59.19,0,0,1,10.62-5.53c3.52-1.39,7.69-3,11.49-3.22-.12,1.58-.74,2.58.22,4a7.66,7.66,0,0,0,3.09,2.5c1.2.65,1.34,1.71,1.77,3a11.45,11.45,0,0,0,3.52,4.88c3.72,3.16,8,4.28,12.6,5.52a53.32,53.32,0,0,0,16.54,1.72,75.41,75.41,0,0,0,10.59-1.28c1.72-.35,3.38-.91,5.09-1.31,1.46-.35,2.54-1.16,4-1.6a3.7,3.7,0,0,1,3.35.42,3.54,3.54,0,0,1,1.13,3.41,7.26,7.26,0,0,1-1.71,3.31,16.89,16.89,0,0,1-8.73,5.63,5.43,5.43,0,0,0-1.62.59,1.53,1.53,0,0,0-.78,1.44c.12.87,1.16,1.25,2,1.38a14.92,14.92,0,0,0,9.65-1.9c3.39-2,6.42-5.76,6.91-9.73a35.52,35.52,0,0,0-1.94-15.52c-.83-2.45-1.87-4.9-2-7.49-.1-2.78.89-5.47,1.29-8.22,2.07-14.21-12.06-24.3-24.14-27.76-8.36-2.4-17.18-2.63-25.88-2.6-6.75,0-13.82.26-19.7,3.58a27.32,27.32,0,0,0-5.74,4.48c-1.56,1.56-2.9,3.93-4.68,5.19-1.42,1-3.31.72-4.84,1.64A7.69,7.69,0,0,0,60.46,392Z" style="fill:#e0e0e0"></path><path id="freepik--shadow--inject-77" d="M310.4,211.08c9.41,5.49,9.41,14.4,0,19.89s-24.65,5.49-34,0-9.41-14.4,0-19.89S301,205.59,310.4,211.08Z" style="fill:#e0e0e0"></path></g><g id="freepik--Plant--inject-77"><g id="freepik--plant--inject-77"><g id="freepik--Pot--inject-77"><path d="M278.93,224.28c-7.73-8-12.27-28.13-4.74-34.46h38.36c7.54,6.33,3,26.47-4.72,34.45l-.21.22-.27.26a8.47,8.47,0,0,1-.7.63l-.18.15c-.19.15-.38.3-.58.44a11.32,11.32,0,0,1-1,.65c-6.36,3.71-16.67,3.71-23,0h0a10,10,0,0,1-1-.65c-.2-.14-.37-.28-.55-.42l-.23-.18c-.24-.2-.46-.4-.67-.6l-.31-.31Z" style="fill:#37474f"></path><path d="M309.22,187.27c8.75,5.11,8.75,13.4,0,18.51s-22.94,5.11-31.69,0-8.75-13.4,0-18.51S300.47,182.16,309.22,187.27Z" style="fill:#455a64"></path><path d="M305,189.73c6.43,3.76,6.43,9.84,0,13.59s-16.85,3.75-23.27,0-6.43-9.83,0-13.59S298.59,186,305,189.73Z" style="fill:#263238"></path><path d="M281.74,196.18c6.42-3.75,16.85-3.75,23.27,0a10.65,10.65,0,0,1,3.85,3.57,10.65,10.65,0,0,1-3.85,3.57c-6.42,3.75-16.85,3.75-23.27,0a10.65,10.65,0,0,1-3.85-3.57A10.65,10.65,0,0,1,281.74,196.18Z" style="fill:#fff"></path></g><path d="M288.12,159.31c-2.58,3.27-10.36,4.71-14.24-3.3-3.64-7.52-7.48-14.61-8.64-17.39a2.93,2.93,0,0,1,1.59-3.92s-.1-4.28,7.33-1.94,12.86,6.32,16.54,13.16S292.88,158,288.12,159.31Z" style="fill:#0072FF"></path><g style="opacity:0.5"><path d="M288.12,159.31c-2.58,3.27-10.36,4.71-14.24-3.3-3.64-7.52-7.48-14.61-8.64-17.39a2.93,2.93,0,0,1,1.59-3.92s-.1-4.28,7.33-1.94,12.86,6.32,16.54,13.16S292.88,158,288.12,159.31Z" style="fill:#fff"></path></g><path d="M292.08,170a41.55,41.55,0,0,0-.95-4.26,60.64,60.64,0,0,0-3-8.13,61.34,61.34,0,0,0-9.54-14.79,52.77,52.77,0,0,0-7.14-7c-.08-.06-.12.11-.07.16a65.83,65.83,0,0,1,11.38,13.43,66.54,66.54,0,0,1,7.18,15.67c.47,1.54.93,3.1,1.34,4.66s.71,3.2,1.1,4.79c0,.16.3.24.3,0A30.79,30.79,0,0,0,292.08,170Z" style="fill:#0072FF"></path><path d="M292.08,170a41.55,41.55,0,0,0-.95-4.26,60.64,60.64,0,0,0-3-8.13,61.34,61.34,0,0,0-9.54-14.79,52.77,52.77,0,0,0-7.14-7c-.08-.06-.12.11-.07.16a65.83,65.83,0,0,1,11.38,13.43,66.54,66.54,0,0,1,7.18,15.67c.47,1.54.93,3.1,1.34,4.66s.71,3.2,1.1,4.79c0,.16.3.24.3,0A30.79,30.79,0,0,0,292.08,170Z" style="opacity:0.30000000000000004"></path><path d="M296.56,153.57c-6.75,2.08-11.77-3.18-10-11.45s10.41-17.43,13.69-15c2-2,6.56-1.31,8.68,5.4S309.1,156.49,296.56,153.57Z" style="fill:#0072FF"></path><g style="opacity:0.30000000000000004"><path d="M296.56,153.57c-6.75,2.08-11.77-3.18-10-11.45s10.41-17.43,13.69-15c2-2,6.56-1.31,8.68,5.4S309.1,156.49,296.56,153.57Z" style="fill:#fff"></path></g><path d="M300.52,132.18A90,90,0,0,0,296,147a143.69,143.69,0,0,0-2.6,15.55c-1.22,10.09-1.42,9.53-1.36,19.69q0,4.22.11,8.43c.06,2.89,0,5.82.26,8.7.1,1.11,1.67.81,1.69-.2.1-5.06-.18-10.14-.23-15.2a33.51,33.51,0,0,1,.09-4.25,211,211,0,0,1,2.73-30.42c.49-2.8,1-5.6,1.67-8.36.69-2.91,1.53-5.78,2.3-8.67C300.72,132.17,300.58,132,300.52,132.18Z" style="fill:#0072FF"></path><path d="M300.52,132.18A90,90,0,0,0,296,147a143.69,143.69,0,0,0-2.6,15.55c-1.22,10.09-1.42,9.53-1.36,19.69q0,4.22.11,8.43c.06,2.89,0,5.82.26,8.7.1,1.11,1.67.81,1.69-.2.1-5.06-.18-10.14-.23-15.2a33.51,33.51,0,0,1,.09-4.25,211,211,0,0,1,2.73-30.42c.49-2.8,1-5.6,1.67-8.36.69-2.91,1.53-5.78,2.3-8.67C300.72,132.17,300.58,132,300.52,132.18Z" style="opacity:0.30000000000000004"></path><path d="M280.94,175.9c-.87,4.37-6.86,7.52-13.77,4.66s-20.56-20.84-14.33-22.82c-.34-3.27,18.5-6,27.82,5.54C287.44,171.63,280.94,175.9,280.94,175.9Z" style="fill:#0072FF"></path><g style="opacity:0.7000000000000001"><path d="M280.94,175.9c-.87,4.37-6.86,7.52-13.77,4.66s-20.56-20.84-14.33-22.82c-.34-3.27,18.5-6,27.82,5.54C287.44,171.63,280.94,175.9,280.94,175.9Z" style="fill:#fff"></path></g><path d="M290.82,182.38a31.47,31.47,0,0,0-2.81-3.09,83,83,0,0,0-6.34-5.67,85.73,85.73,0,0,0-14.59-9.39,77.5,77.5,0,0,0-8.81-4c-.09,0,0,.13,0,.15,2.51,1.19,5,2.35,7.47,3.71a84.2,84.2,0,0,1,7.32,4.62,105.9,105.9,0,0,1,12.88,10.54c1.14,1.09,2.22,2.24,3.37,3.32s2.48,2.16,3.62,3.33c.16.18.46.1.28-.15C292.4,184.64,291.67,183.47,290.82,182.38Z" style="fill:#0072FF"></path><path d="M290.82,182.38a31.47,31.47,0,0,0-2.81-3.09,83,83,0,0,0-6.34-5.67,85.73,85.73,0,0,0-14.59-9.39,77.5,77.5,0,0,0-8.81-4c-.09,0,0,.13,0,.15,2.51,1.19,5,2.35,7.47,3.71a84.2,84.2,0,0,1,7.32,4.62,105.9,105.9,0,0,1,12.88,10.54c1.14,1.09,2.22,2.24,3.37,3.32s2.48,2.16,3.62,3.33c.16.18.46.1.28-.15C292.4,184.64,291.67,183.47,290.82,182.38Z" style="opacity:0.30000000000000004"></path><path d="M319.22,170.63c-.11-2.46-12.51-2.33-18.32,2.34s-6.5,9.26-2.88,10.85c-.64,5.2,7.57,8.62,14.91,2.12S321.87,171.14,319.22,170.63Z" style="fill:#0072FF"></path><path d="M319.22,170.63c-.11-2.46-12.51-2.33-18.32,2.34s-6.5,9.26-2.88,10.85c-.64,5.2,7.57,8.62,14.91,2.12S321.87,171.14,319.22,170.63Z" style="fill:#fff;opacity:0.30000000000000004"></path><path d="M307,177.13a30.46,30.46,0,0,0-13.7,12c-.19.3.28.88.49.56A35.44,35.44,0,0,1,307,177.21S307.06,177.11,307,177.13Z" style="fill:#0072FF"></path><path d="M307,177.13a30.46,30.46,0,0,0-13.7,12c-.19.3.28.88.49.56A35.44,35.44,0,0,1,307,177.21S307.06,177.11,307,177.13Z" style="opacity:0.30000000000000004"></path><path d="M298.76,191.81c-4.2,4.12.44,9.23,7.25,11.76a24.35,24.35,0,0,0,17.63-.82c3.28-1.63,4-2.46,4-2.46a41.77,41.77,0,0,0-3.48-8.33A17.44,17.44,0,0,0,307,184.07C298.23,185.18,297.52,188.81,298.76,191.81Z" style="fill:#0072FF"></path><g style="opacity:0.5"><path d="M298.76,191.81c-4.2,4.12.44,9.23,7.25,11.76a24.35,24.35,0,0,0,17.63-.82c3.28-1.63,4-2.46,4-2.46a41.77,41.77,0,0,0-3.48-8.33A17.44,17.44,0,0,0,307,184.07C298.23,185.18,297.52,188.81,298.76,191.81Z" style="fill:#fff"></path></g><path d="M316.38,194.91a44.36,44.36,0,0,0-10.67-4c-3.65-.7-8.15-.73-11.1,1.87-1.15,1-2.67,3.2-1.74,4.74.09.16.55.45.66.14a14.18,14.18,0,0,1,.94-2.87,5.82,5.82,0,0,1,2.28-2.15,13.55,13.55,0,0,1,7.73-1.31c4.16.4,8.07,2.07,11.9,3.63C316.42,195,316.42,194.92,316.38,194.91Z" style="fill:#0072FF"></path><path d="M316.38,194.91a44.36,44.36,0,0,0-10.67-4c-3.65-.7-8.15-.73-11.1,1.87-1.15,1-2.67,3.2-1.74,4.74.09.16.55.45.66.14a14.18,14.18,0,0,1,.94-2.87,5.82,5.82,0,0,1,2.28-2.15,13.55,13.55,0,0,1,7.73-1.31c4.16.4,8.07,2.07,11.9,3.63C316.42,195,316.42,194.92,316.38,194.91Z" style="opacity:0.30000000000000004"></path><path d="M299.91,165.82c-1.05,3.69,3.66,7.14,9.52,5.16s11.94-3.8,16.93-3.86,8.16-3.35,7.13-5.57-2.24-7.47-15-9-18.46,3-21.12,6.5S297.79,166.44,299.91,165.82Z" style="fill:#0072FF"></path><g style="opacity:0.7000000000000001"><path d="M299.91,165.82c-1.05,3.69,3.66,7.14,9.52,5.16s11.94-3.8,16.93-3.86,8.16-3.35,7.13-5.57-2.24-7.47-15-9-18.46,3-21.12,6.5S297.79,166.44,299.91,165.82Z" style="fill:#fff"></path></g><path d="M323.55,158.07a15.71,15.71,0,0,0-4.11-.38,25.09,25.09,0,0,0-4,.33,30.75,30.75,0,0,0-7.48,2.32c-4.47,2-8.91,4.57-11.81,8.6a28.86,28.86,0,0,0-3.75,7c-.16.48.76.74,1,.32a53.48,53.48,0,0,1,3.18-6.1,18.87,18.87,0,0,1,4.88-5.08A38.74,38.74,0,0,1,315,158.92a26.22,26.22,0,0,1,4.31-.64,38.9,38.9,0,0,1,4.32.17C323.78,158.46,323.69,158.1,323.55,158.07Z" style="fill:#0072FF"></path><path d="M323.55,158.07a15.71,15.71,0,0,0-4.11-.38,25.09,25.09,0,0,0-4,.33,30.75,30.75,0,0,0-7.48,2.32c-4.47,2-8.91,4.57-11.81,8.6a28.86,28.86,0,0,0-3.75,7c-.16.48.76.74,1,.32a53.48,53.48,0,0,1,3.18-6.1,18.87,18.87,0,0,1,4.88-5.08A38.74,38.74,0,0,1,315,158.92a26.22,26.22,0,0,1,4.31-.64,38.9,38.9,0,0,1,4.32.17C323.78,158.46,323.69,158.1,323.55,158.07Z" style="opacity:0.30000000000000004"></path><path d="M289.48,186.62c-1-3.8-5.8-5.93-12.09-6.4a16.44,16.44,0,0,0-15.63,8c-3.29,5.62-4.66,10.1-2.66,10.83s10.44,1.91,15.9,2.39,12.26-.5,16.7-4.64S294.68,187.49,289.48,186.62Z" style="fill:#0072FF"></path><path d="M289.48,186.62c-1-3.8-5.8-5.93-12.09-6.4a16.44,16.44,0,0,0-15.63,8c-3.29,5.62-4.66,10.1-2.66,10.83s10.44,1.91,15.9,2.39,12.26-.5,16.7-4.64S294.68,187.49,289.48,186.62Z" style="fill:#fff;opacity:0.30000000000000004"></path><path d="M289.71,186.12a16.47,16.47,0,0,0-6.78-.32,29.84,29.84,0,0,0-6.41,1.48,41.06,41.06,0,0,0-6.35,2.85c-1.06.58-2.11,1.2-3.13,1.85a22.7,22.7,0,0,0-2.81,2s0,.16,0,.13c1-.46,2-1.12,3-1.67s2.13-1.18,3.22-1.74a44.58,44.58,0,0,1,6.29-2.66,29.83,29.83,0,0,1,6.67-1.43,39.79,39.79,0,0,1,6.36.16C290.23,186.75,290,186.2,289.71,186.12Z" style="fill:#0072FF"></path><path d="M289.71,186.12a16.47,16.47,0,0,0-6.78-.32,29.84,29.84,0,0,0-6.41,1.48,41.06,41.06,0,0,0-6.35,2.85c-1.06.58-2.11,1.2-3.13,1.85a22.7,22.7,0,0,0-2.81,2s0,.16,0,.13c1-.46,2-1.12,3-1.67s2.13-1.18,3.22-1.74a44.58,44.58,0,0,1,6.29-2.66,29.83,29.83,0,0,1,6.67-1.43,39.79,39.79,0,0,1,6.36.16C290.23,186.75,290,186.2,289.71,186.12Z" style="opacity:0.30000000000000004"></path></g></g><g id="freepik--Furniture--inject-77"><g id="freepik--Drawer--inject-77"><g id="freepik--drawer--inject-77"><polygon points="375.11 271.19 379.25 291.75 383.28 294.07 387.27 291.77 391.45 271.19 383.28 266.47 375.11 271.19" style="fill:#e0e0e0"></polygon><polygon points="375.11 271.19 379.25 291.75 383.28 294.07 387.27 291.77 391.45 271.19 383.28 266.47 375.11 271.19" style="fill:#263238"></polygon><polygon points="383.28 294.07 383.28 275.91 375.11 271.19 379.25 291.75 383.28 294.07" style="fill:#455a64"></polygon><polygon points="375.11 271.19 377.79 284.46 383.28 287.64 388.75 284.48 391.45 271.19 383.28 266.47 375.11 271.19" style="opacity:0.05"></polygon><polygon points="411.04 250.45 415.19 271 419.21 273.33 423.2 271.02 427.38 250.45 419.21 245.73 411.04 250.45" style="fill:#e0e0e0"></polygon><polygon points="411.04 250.45 415.19 271 419.21 273.33 423.2 271.02 427.38 250.45 419.21 245.73 411.04 250.45" style="fill:#263238"></polygon><polygon points="419.21 273.33 419.21 255.16 411.04 250.45 415.19 271 419.21 273.33" style="fill:#455a64"></polygon><polygon points="411.04 250.45 413.72 263.72 419.21 266.89 424.69 263.73 427.38 250.45 419.21 245.73 411.04 250.45" style="opacity:0.05"></polygon><polygon points="318.55 238.48 322.69 259.04 326.72 261.36 330.71 259.06 334.89 238.48 326.71 233.76 318.55 238.48" style="fill:#e0e0e0"></polygon><polygon points="318.55 238.48 322.69 259.04 326.72 261.36 330.71 259.06 334.89 238.48 326.71 233.76 318.55 238.48" style="fill:#263238"></polygon><polygon points="326.72 261.36 326.72 243.2 318.55 238.48 322.69 259.04 326.72 261.36" style="fill:#455a64"></polygon><polygon points="318.55 238.48 321.22 251.75 326.72 254.93 332.19 251.77 334.89 238.48 326.71 233.76 318.55 238.48" style="opacity:0.05"></polygon><g id="freepik--Cabinet--inject-77"><g id="freepik--cabinet--inject-77"><polygon points="383.28 284.32 427.81 258.61 427.81 180.02 383.28 205.73 383.28 284.32" style="fill:#263238"></polygon><polygon points="383.28 205.73 316.23 166.97 316.23 245.56 383.28 284.32 383.28 205.73" style="fill:#37474f"></polygon><polygon points="316.23 166.97 383.28 205.73 427.81 180.02 360.76 141.26 316.23 166.97" style="fill:#455a64"></polygon><polygon points="376.92 244.58 322.59 213.16 321.42 213.84 321.42 240.31 375.75 271.73 376.92 271.06 376.92 244.58" style="fill:#263238"></polygon><polygon points="375.75 245.26 321.42 213.84 321.42 240.31 375.75 271.73 375.75 245.26" style="fill:#455a64"></polygon><path d="M353.5,239.44l-8.66-5c-1.12-.65-2-.36-2,.66a4.08,4.08,0,0,0,2,3l8.66,5c1.12.65,2,.36,2-.66A4.08,4.08,0,0,0,353.5,239.44Z" style="fill:#37474f"></path><polygon points="376.92 210.77 322.59 179.35 321.42 180.02 321.42 206.5 375.75 237.92 376.93 237.24 376.92 210.77" style="fill:#263238"></polygon><polygon points="375.75 211.44 321.42 180.02 321.42 206.5 375.75 237.92 375.75 211.44" style="fill:#455a64"></polygon><path d="M353.5,205.63l-8.65-5c-1.13-.65-2-.35-2,.66a4.05,4.05,0,0,0,2,3l8.65,5c1.12.65,2,.35,2-.66A4.07,4.07,0,0,0,353.5,205.63Z" style="fill:#37474f"></path></g></g></g><g id="freepik--Book--inject-77"><path d="M331.62,113.38v1s.4-.36.42-.62S331.62,113.38,331.62,113.38Z"></path><path d="M332.41,113.13a1.09,1.09,0,0,1-.8,1.38c-1.12.35-1.82,0-2,.31s5.31,3.47,5.31,3.47l-1-4.53Z" style="fill:#0072FF"></path><path d="M332.41,113.13a1.09,1.09,0,0,1-.8,1.38c-1.12.35-1.82,0-2,.31s5.31,3.47,5.31,3.47l-1-4.53Z" style="opacity:0.30000000000000004"></path><path d="M333,162.47v.07l.55-.32L356.45,149V101c0-.66-.36-1-.8-.72l-.8.46-22,12.68,0,.19Z" style="fill:#0072FF"></path><path d="M333,162.47v.07l.55-.32L356.45,149V101c0-.66-.36-1-.8-.72l-.8.46-22,12.68,0,.19Z" style="opacity:0.2"></path><path d="M337.66,119.55l1.16-1.3-5.9-3.4c-.89.67-1.57,1-2.37.69Z" style="fill:#455a64"></path><path d="M333.22,114.15,355,101.58a1.57,1.57,0,0,1,1.37,0l5.82,3.36L340.1,117.57a2.06,2.06,0,0,0-1.61.28c-.65.53-.61-.14-.61-.14l-5-2.86C333.32,114.3,333.22,114.15,333.22,114.15Z" style="fill:#f5f5f5"></path><path d="M338.09,119.28c.23-.13.32-.28.21-.34l-.18-.11c-.2-.12,0-.42.43-.68a1.55,1.55,0,0,1,1.18-.25l.18.11c.11.06.49-.07.87-.29l-.13,48.4-.55.32a.63.63,0,0,1-.33,0l-.18-.11a1.49,1.49,0,0,0-1.17.25c-.45.26-.64.56-.43.68l.18.11c.11.06,0,.21-.21.34Z" style="fill:#0072FF"></path><path d="M338.09,119.28c.23-.13.32-.28.21-.34l-.18-.11c-.2-.12,0-.42.43-.68a1.55,1.55,0,0,1,1.18-.25l.18.11c.11.06.49-.07.87-.29l-.13,48.4-.55.32a.63.63,0,0,1-.33,0l-.18-.11a1.49,1.49,0,0,0-1.17.25c-.45.26-.64.56-.43.68l.18.11c.11.06,0,.21-.21.34Z" style="opacity:0.4"></path><path d="M340.1,166.37v.07l.54-.32,23.51-13.57V105.42c0-.66-.36-1-.8-.72l-.8.46L340.1,117.57Z" style="fill:#0072FF"></path><path d="M340.1,166.37v.07l.54-.32,23.51-13.57V105.42c0-.66-.36-1-.8-.72l-.8.46L340.1,117.57Z" style="opacity:0.2"></path><path d="M338.35,167.45V119l-1.46.59V167.9a1.32,1.32,0,0,0,.8-.08Z" style="fill:#0072FF"></path><path d="M338.35,167.45V119l-1.46.59V167.9a1.32,1.32,0,0,0,.8-.08Z" style="opacity:0.2"></path><path d="M329,163.21s0,0,0,.08a.43.43,0,0,1,0,.05.54.54,0,0,0,.05.11l0,.05a.94.94,0,0,0,.12.18l.17.18.2.17.13.1.11.08.26.16,5.06,2.93a4.88,4.88,0,0,0,1.71.6V119.59L329,114.88v48.33Z" style="fill:#0072FF"></path><path d="M336.89,125.25v4.91a20.09,20.09,0,0,1-7.86-4.54v-4.91A20.09,20.09,0,0,0,336.89,125.25Z" style="fill:#0072FF"></path><path d="M336.89,125.25v4.91a20.09,20.09,0,0,1-7.86-4.54v-4.91A20.09,20.09,0,0,0,336.89,125.25Z" style="fill:#fff;opacity:0.4"></path><path d="M336.89,132v1.83a20.09,20.09,0,0,1-7.86-4.54v-1.83A20.09,20.09,0,0,0,336.89,132Z" style="fill:#0072FF"></path><path d="M336.89,132v1.83a20.09,20.09,0,0,1-7.86-4.54v-1.83A20.09,20.09,0,0,0,336.89,132Z" style="fill:#fff;opacity:0.4"></path><path d="M335.18,119l.4-.68a3.55,3.55,0,0,0,1.68.53,1,1,0,0,1,.14-.67,2,2,0,0,1,.76-.69,2.91,2.91,0,0,1,1.15-.39h.08a1.41,1.41,0,0,1,.71.13l20.84-12,.71-.41.9-.52a.49.49,0,0,1,.49,0l.8.47a.48.48,0,0,0-.5,0h0l-2.39,1.39-20.16,11.63a1.45,1.45,0,0,1-.87.29l-.19-.11a.59.59,0,0,0-.41,0,2.25,2.25,0,0,0-.76.27c-.44.26-.63.56-.43.68l.19.11c.1.06,0,.21-.22.34l-.4.23A3.25,3.25,0,0,1,335.18,119Z" style="fill:#0072FF"></path><path d="M335.18,119l.4-.68a3.55,3.55,0,0,0,1.68.53,1,1,0,0,1,.14-.67,2,2,0,0,1,.76-.69,2.91,2.91,0,0,1,1.15-.39h.08a1.41,1.41,0,0,1,.71.13l20.84-12,.71-.41.9-.52a.49.49,0,0,1,.49,0l.8.47a.48.48,0,0,0-.5,0h0l-2.39,1.39-20.16,11.63a1.45,1.45,0,0,1-.87.29l-.19-.11a.59.59,0,0,0-.41,0,2.25,2.25,0,0,0-.76.27c-.44.26-.63.56-.43.68l.19.11c.1.06,0,.21-.22.34l-.4.23A3.25,3.25,0,0,1,335.18,119Z" style="opacity:0.30000000000000004"></path><path d="M335.58,118.3l-5.07-2.92-.21-.13-.16-.12h0a2.29,2.29,0,0,0,1.88-.29,1.85,1.85,0,0,0,.74-.69,1,1,0,0,0,.13-.74l.07,0,.14-.08,20.16-11.63,1.16-.67.33-.19,1-.57a.49.49,0,0,1,.44,0l-.22-.13-.58-.34a.45.45,0,0,0-.41,0h0l-.36.21-.22.13-.39.22-.24.14-.17.1-.3.17-16,9.25-5.11,3c-.37.21-.58.42-.5.5l0,0,.17.1c.23.13.05.44-.4.7a1.06,1.06,0,0,1-1,.14l-.22-.13a.38.38,0,0,0-.32,0l-.11.07-.26.14-.31.18a.32.32,0,0,0-.17.36.13.13,0,0,0,0,.06l.05.11h0l0,0,.13.18.16.18.21.17.13.1.11.08.26.16,5.06,2.92Z" style="fill:#0072FF"></path><path d="M335.58,118.3l-5.07-2.92-.21-.13-.16-.12h0a2.29,2.29,0,0,0,1.88-.29,1.85,1.85,0,0,0,.74-.69,1,1,0,0,0,.13-.74l.07,0,.14-.08,20.16-11.63,1.16-.67.33-.19,1-.57a.49.49,0,0,1,.44,0l-.22-.13-.58-.34a.45.45,0,0,0-.41,0h0l-.36.21-.22.13-.39.22-.24.14-.17.1-.3.17-16,9.25-5.11,3c-.37.21-.58.42-.5.5l0,0,.17.1c.23.13.05.44-.4.7a1.06,1.06,0,0,1-1,.14l-.22-.13a.38.38,0,0,0-.32,0l-.11.07-.26.14-.31.18a.32.32,0,0,0-.17.36.13.13,0,0,0,0,.06l.05.11h0l0,0,.13.18.16.18.21.17.13.1.11.08.26.16,5.06,2.92Z" style="opacity:0.30000000000000004"></path></g><g id="freepik--book--inject-77"><path d="M343.27,123.81v1s.39-.36.41-.62S343.27,123.81,343.27,123.81Z"></path><path d="M344.06,123.56a1.07,1.07,0,0,1-.79,1.37c-1.12.35-1.83,0-2,.31s3.88,2.66,3.88,2.66l.39-3.72Z" style="fill:#0072FF"></path><path d="M344.06,123.56a1.07,1.07,0,0,1-.79,1.37c-1.12.35-1.83,0-2,.31s3.88,2.66,3.88,2.66l.39-3.72Z" style="opacity:0.30000000000000004"></path><path d="M344.61,168V168l.55-.31,22.95-13.25V111.4c0-.65-.36-1-.8-.72l-.8.47-22,12.68,0,.19Z" style="fill:#0072FF"></path><path d="M344.61,168V168l.55-.31,22.95-13.25V111.4c0-.65-.36-1-.8-.72l-.8.47-22,12.68,0,.19Z" style="opacity:0.2"></path><path d="M347.89,129.15l1.16-1.29-4.48-2.59c-.89.67-1.57,1-2.37.7Z" style="fill:#455a64"></path><path d="M343.44,123.75l21.77-12.56c1.8.6,2.41.6,2.79.82l4.39,2.54-22.07,12.63a2,2,0,0,0-1.6.27c-.65.53-.61-.14-.61-.14l-3.54-2C345,124.73,343.44,123.75,343.44,123.75Z" style="fill:#f5f5f5"></path><path d="M348.32,128.88c.22-.13.32-.28.21-.34l-.18-.1c-.21-.12,0-.43.43-.69a1.54,1.54,0,0,1,1.17-.25l.19.11c.1.06.49-.07.87-.28l-.14,45-.55.32a.61.61,0,0,1-.32,0l-.18-.11a1.51,1.51,0,0,0-1.18.25c-.44.25-.63.56-.43.68l.19.1c.1.07,0,.22-.22.35Z" style="fill:#0072FF"></path><path d="M348.32,128.88c.22-.13.32-.28.21-.34l-.18-.1c-.21-.12,0-.43.43-.69a1.54,1.54,0,0,1,1.17-.25l.19.11c.1.06.49-.07.87-.28l-.14,45-.55.32a.61.61,0,0,1-.32,0l-.18-.11a1.51,1.51,0,0,0-1.18.25c-.44.25-.63.56-.43.68l.19.1c.1.07,0,.22-.22.35Z" style="fill:#fff;opacity:0.25"></path><path d="M350.32,172.57v.07l.55-.32,23.5-13.57V115c0-.65-.36-1-.8-.72l-.8.46-22.45,12.42Z" style="fill:#0072FF"></path><path d="M350.32,172.57v.07l.55-.32,23.5-13.57V115c0-.65-.36-1-.8-.72l-.8.46-22.45,12.42Z" style="fill:#fff;opacity:0.4"></path><path d="M348.57,173.64v-45l-1.45.59v44.9a1.32,1.32,0,0,0,.8-.08Z" style="fill:#0072FF"></path><path d="M348.57,173.64v-45l-1.45.59v44.9a1.32,1.32,0,0,0,.8-.08Z" style="fill:#fff;opacity:0.4"></path><path d="M340.69,170.23a.25.25,0,0,0,0,.08s0,0,0,.05a.49.49,0,0,0,0,.11l0,.05a1.13,1.13,0,0,0,.12.18l.17.18.2.18.13.09.11.08a2.26,2.26,0,0,0,.26.16l3.64,2.1a4.72,4.72,0,0,0,1.71.61V129.2l-6.44-3.89v44.91Z" style="fill:#0072FF"></path><g style="opacity:0.7000000000000001"><path d="M340.69,170.23a.25.25,0,0,0,0,.08s0,0,0,.05a.49.49,0,0,0,0,.11l0,.05a1.13,1.13,0,0,0,.12.18l.17.18.2.18.13.09.11.08a2.26,2.26,0,0,0,.26.16l3.64,2.1a4.72,4.72,0,0,0,1.71.61V129.2l-6.44-3.89v44.91Z" style="fill:#fff"></path></g><path d="M347.12,132.57v4.91c-3.14-1.07-4.41-1.69-6.44-3.71v-4.91C342.71,130.88,344,131.5,347.12,132.57Z" style="fill:#fafafa"></path><path d="M347.12,164.1V169c-3.14-1.07-4.41-1.69-6.44-3.72v-4.91C342.71,162.41,344,163,347.12,164.1Z" style="fill:#fafafa"></path><path d="M345.41,128.59l.39-.69a3.43,3.43,0,0,0,1.69.53,1,1,0,0,1,.14-.66,2.06,2.06,0,0,1,.75-.7,3.13,3.13,0,0,1,1.15-.39.27.27,0,0,1,.09,0,1.26,1.26,0,0,1,.7.13l20.85-12,.71-.4.9-.53a.48.48,0,0,1,.49,0l.8.46a.48.48,0,0,0-.5,0h0l-2.39,1.38L351,127.33c-.38.21-.77.34-.87.28l-.19-.1a.57.57,0,0,0-.42,0,2.28,2.28,0,0,0-.75.27c-.45.26-.64.57-.43.68l.18.11c.11.06,0,.21-.21.34l-.4.23A3.23,3.23,0,0,1,345.41,128.59Z" style="fill:#0072FF"></path><path d="M345.41,128.59l.39-.69a3.43,3.43,0,0,0,1.69.53,1,1,0,0,1,.14-.66,2.06,2.06,0,0,1,.75-.7,3.13,3.13,0,0,1,1.15-.39.27.27,0,0,1,.09,0,1.26,1.26,0,0,1,.7.13l20.85-12,.71-.4.9-.53a.48.48,0,0,1,.49,0l.8.46a.48.48,0,0,0-.5,0h0l-2.39,1.38L351,127.33c-.38.21-.77.34-.87.28l-.19-.1a.57.57,0,0,0-.42,0,2.28,2.28,0,0,0-.75.27c-.45.26-.64.57-.43.68l.18.11c.11.06,0,.21-.21.34l-.4.23A3.23,3.23,0,0,1,345.41,128.59Z" style="fill:#fff;opacity:0.6000000000000001"></path><path d="M345.8,127.9l-3.63-2.1a1.07,1.07,0,0,1-.21-.13l-.16-.11,0,0a2.21,2.21,0,0,0,1.88-.29,1.89,1.89,0,0,0,.74-.68,1,1,0,0,0,.13-.74l.07,0,.14-.08,20.16-11.64,1.16-.67.33-.19,1-.56a.44.44,0,0,1,.43,0l-.22-.13-.58-.33a.41.41,0,0,0-.4,0h0l-.36.21-.22.12-.39.23-.24.14-.17.09-.3.17-16,9.25-5.11,2.95c-.37.21-.58.43-.49.5l0,0,.18.11c.22.13,0,.44-.4.69a1.12,1.12,0,0,1-1,.15l-.22-.13a.34.34,0,0,0-.31,0l-.12.07-.25.15-.32.18a.32.32,0,0,0-.17.36s0,0,0,0a.37.37,0,0,0,.05.11h0l0,.06a.66.66,0,0,0,.12.17l.17.18.2.18.13.1.11.07.26.17,3.64,2.1Z" style="fill:#0072FF"></path><path d="M345.8,127.9l-3.63-2.1a1.07,1.07,0,0,1-.21-.13l-.16-.11,0,0a2.21,2.21,0,0,0,1.88-.29,1.89,1.89,0,0,0,.74-.68,1,1,0,0,0,.13-.74l.07,0,.14-.08,20.16-11.64,1.16-.67.33-.19,1-.56a.44.44,0,0,1,.43,0l-.22-.13-.58-.33a.41.41,0,0,0-.4,0h0l-.36.21-.22.12-.39.23-.24.14-.17.09-.3.17-16,9.25-5.11,2.95c-.37.21-.58.43-.49.5l0,0,.18.11c.22.13,0,.44-.4.69a1.12,1.12,0,0,1-1,.15l-.22-.13a.34.34,0,0,0-.31,0l-.12.07-.25.15-.32.18a.32.32,0,0,0-.17.36s0,0,0,0a.37.37,0,0,0,.05.11h0l0,.06a.66.66,0,0,0,.12.17l.17.18.2.18.13.1.11.07.26.17,3.64,2.1Z" style="fill:#fff;opacity:0.6000000000000001"></path></g><g id="freepik--pot--inject-77"><path id="freepik--shadow--inject-77" d="M369.51,167.16c-5.33,3.08-5.33,8.07,0,11.15s14,3.07,19.31,0,5.33-8.07,0-11.15S374.84,164.08,369.51,167.16Z" style="fill:#37474f"></path><path d="M387.84,174.92c4.65-4.73,7.37-16.56,2.85-20.32H367.64c-4.52,3.76-1.8,15.58,2.84,20.32l.13.13.16.16c.13.12.27.25.42.37l.11.09.35.26.6.39a15.32,15.32,0,0,0,13.83,0h0c.2-.12.41-.25.6-.39a4.08,4.08,0,0,0,.33-.25l.14-.11a3.42,3.42,0,0,0,.4-.36,1.57,1.57,0,0,0,.19-.18Z" style="fill:#f5f5f5"></path><path d="M369.65,152.8c-5.26,3-5.26,8,0,11s13.78,3,19,0,5.26-8,0-11S374.9,149.76,369.65,152.8Z" style="fill:#fff"></path><path d="M373.37,155c-3.19,1.85-3.19,4.84,0,6.69a12.86,12.86,0,0,0,11.59,0c3.19-1.85,3.19-4.84,0-6.69A12.8,12.8,0,0,0,373.37,155Z" style="fill:#ebebeb"></path><path d="M385,158.13a12.83,12.83,0,0,0-11.59,0,5.4,5.4,0,0,0-1.91,1.76,5.31,5.31,0,0,0,1.91,1.76,12.86,12.86,0,0,0,11.59,0,5.31,5.31,0,0,0,1.91-1.76A5.29,5.29,0,0,0,385,158.13Z" style="fill:#e0e0e0"></path><path d="M374.08,159.88a26.13,26.13,0,0,1-4.19-5.57c-1.93-3.42-2.29-8-1.29-8.57s5.07,4,5.07,4a24.77,24.77,0,0,1-.43-5.84c.17-3,.91-5.82,1.79-6.38s2.82,3.29,3.66,6.08,1.34,5.07,1.34,5.07a43.1,43.1,0,0,1,1.5-6.41c1-2.89,1.93-3.54,2.65-3.26s1.18,1.64,1.39,5.49a37.75,37.75,0,0,1-.17,5.51s1.44-1.58,3-3.11c1.75-1.68,2.5-1.91,3-1.59s.64,2.93-2.07,7.84a27.62,27.62,0,0,1-5.12,6.73S380.49,162.3,374.08,159.88Z" style="fill:#0072FF"></path></g></g></g><g id="freepik--Notebook--inject-77"><g id="freepik--notebook--inject-77"><path d="M226.05,232.36l-178,94.41-3.36,5.29v4.26a6.15,6.15,0,0,0,3.36,5.28L263.56,466a12,12,0,0,0,11.22,0L449.09,365.39v-4.26Z" style="fill:#263238"></path><path d="M269.17,463.14a11.32,11.32,0,0,1-5.61-1.39L48.08,337.34a5.84,5.84,0,0,1,0-10.57L218.86,228.2,449.09,361.13,274.78,461.75A11.38,11.38,0,0,1,269.17,463.14Z" style="fill:#0072FF"></path><path d="M218.85,215.71l-169,97.55-1.59,2.22v16.58h0a2.69,2.69,0,0,0,1.59,2.21L265.33,458.68a8.49,8.49,0,0,0,7.67,0l169-97.55V344.55Z" style="fill:#ebebeb"></path><path d="M442,344.55l-1.93,1.12-25.15,14.51-4.68,2.72L273,442.1a8.49,8.49,0,0,1-7.67,0L49.85,317.68c-2.11-1.22-2.11-3.2,0-4.43l2.06-1.18,166.94-96.36L440.1,343.44l.46.28Z" style="fill:#f0f0f0"></path><path d="M269.17,443V459.6a7.67,7.67,0,0,1-3.83-.92L49.85,334.27a2.7,2.7,0,0,1-1.58-2.22V315.47a2.74,2.74,0,0,0,1.58,2.21L265.34,442.1A7.67,7.67,0,0,0,269.17,443Z" style="fill:#e0e0e0"></path><path d="M218.85,213.5,68.4,300.33h0a72.59,72.59,0,0,1-14.65,6.12,3.44,3.44,0,0,0-2.69,3.9,3.15,3.15,0,0,0,.47,1.15l.38.57c3,4.55,7.76,8.82,15.61,13.6,1.51.91,3.12,1.85,4.85,2.81l193,111.4a8.49,8.49,0,0,0,7.67,0l136.82-79,4.36-2.51L442,342.34ZM68.4,300.33Z" style="fill:#fff"></path><path d="M218.85,214.65,440,342.34l-26.32,15.19-4.36,2.52L272.51,439a7.43,7.43,0,0,1-6.67,0L72.86,327.6c-1.56-.86-3.14-1.77-4.82-2.78-7.39-4.5-12.25-8.73-15.29-13.3l-.18-.26-.2-.32a2.18,2.18,0,0,1-.34-.8,2.45,2.45,0,0,1,2-2.73,74.36,74.36,0,0,0,14.83-6.19l.7-.36v0l149.29-86.17m0-1.15L68.4,300.33h0a72.59,72.59,0,0,1-14.65,6.12,3.44,3.44,0,0,0-2.69,3.9,3.15,3.15,0,0,0,.47,1.15l.38.57c3,4.55,7.76,8.82,15.61,13.6,1.51.91,3.12,1.85,4.85,2.81l193,111.4a8.45,8.45,0,0,0,7.67,0l136.82-79,4.36-2.51L442,342.34,218.85,213.5ZM68.4,300.33h0Z" style="fill:#f0f0f0"></path><path d="M413.21,340.39c-2,1.15-2,3,0,4.16a7.86,7.86,0,0,0,7.16,0c2-1.15,2-3,0-4.16A7.92,7.92,0,0,0,413.21,340.39Z" style="opacity:0.1"></path><path d="M436.23,327c-2.73-1.58-6.15-1.33-9.64.67-5.4,3.14-10.08,10.12-12.12,17.44a7.49,7.49,0,0,0,2.64.32c1.88-6.52,6-12.67,10.81-15.46a9.13,9.13,0,0,1,4.4-1.34,5.2,5.2,0,0,1,2.58.67c2.31,1.33,3.64,4.57,3.64,8.88a16.91,16.91,0,0,1-.13,2.13l2.52,1.45a25.83,25.83,0,0,0,.27-3.58C441.2,332.86,439.39,328.78,436.23,327Z" style="fill:#263238"></path><path d="M440.68,343.1a4.83,4.83,0,0,1-.12.62l-.46-.28Z" style="fill:#263238"></path><path d="M391.62,327.92c-2,1.15-2,3,0,4.16a7.89,7.89,0,0,0,7.16,0c2-1.15,2-3,0-4.16A7.86,7.86,0,0,0,391.62,327.92Z" style="opacity:0.1"></path><path d="M414.64,314.49c-2.73-1.58-6.15-1.33-9.64.67-5.4,3.14-10.08,10.12-12.12,17.44a7.46,7.46,0,0,0,2.64.32c1.88-6.52,6-12.67,10.81-15.46a9.13,9.13,0,0,1,4.4-1.34,5.2,5.2,0,0,1,2.58.67c2.31,1.33,3.63,4.57,3.63,8.88a16.9,16.9,0,0,1-.12,2.13l2.52,1.45a25.8,25.8,0,0,0,.26-3.58C419.6,320.39,417.79,316.31,414.64,314.49Z" style="fill:#263238"></path><path d="M370,315.45c-2,1.15-2,3,0,4.16a7.92,7.92,0,0,0,7.16,0c2-1.15,2-3,0-4.16A7.86,7.86,0,0,0,370,315.45Z" style="opacity:0.1"></path><path d="M393,302c-2.73-1.58-6.15-1.33-9.64.67-5.4,3.14-10.08,10.12-12.12,17.44a7.49,7.49,0,0,0,2.64.32c1.88-6.52,6-12.67,10.81-15.46a9.13,9.13,0,0,1,4.4-1.34,5.17,5.17,0,0,1,2.58.67c2.31,1.33,3.64,4.57,3.64,8.88a16.91,16.91,0,0,1-.13,2.13l2.52,1.45a24.34,24.34,0,0,0,.26-3.58C398,307.92,396.2,303.84,393,302Z" style="fill:#263238"></path><path d="M348.42,303c-2,1.14-2,3,0,4.15a7.88,7.88,0,0,0,7.17,0c2-1.14,2-3,0-4.15A7.88,7.88,0,0,0,348.42,303Z" style="opacity:0.1"></path><path d="M371.45,289.55c-2.73-1.58-6.15-1.33-9.64.67-5.41,3.14-10.08,10.12-12.12,17.44a7.21,7.21,0,0,0,2.64.32c1.88-6.52,6-12.67,10.81-15.45a9,9,0,0,1,4.39-1.35,5.11,5.11,0,0,1,2.59.68c2.3,1.32,3.63,4.57,3.63,8.87a16.9,16.9,0,0,1-.12,2.13l2.52,1.45a25.69,25.69,0,0,0,.26-3.58C376.41,295.45,374.6,291.38,371.45,289.55Z" style="fill:#263238"></path><path d="M326.83,290.52c-2,1.15-2,3,0,4.16a7.92,7.92,0,0,0,7.16,0c2-1.15,2-3,0-4.16A7.86,7.86,0,0,0,326.83,290.52Z" style="opacity:0.1"></path><path d="M349.85,277.08c-2.72-1.57-6.14-1.33-9.64.68-5.4,3.14-10.08,10.12-12.12,17.43a7.05,7.05,0,0,0,2.64.32c1.88-6.52,6-12.67,10.81-15.45a9.15,9.15,0,0,1,4.4-1.35,5,5,0,0,1,2.58.68c2.31,1.33,3.64,4.57,3.64,8.88a16.87,16.87,0,0,1-.13,2.12l2.52,1.46a24.37,24.37,0,0,0,.27-3.58C354.82,283,353,278.91,349.85,277.08Z" style="fill:#263238"></path><path d="M305.23,278.05c-2,1.15-2,3,0,4.15a7.86,7.86,0,0,0,7.16,0c2-1.14,2-3,0-4.15A7.88,7.88,0,0,0,305.23,278.05Z" style="opacity:0.1"></path><path d="M328.25,264.61c-2.73-1.57-6.15-1.32-9.64.68-5.4,3.14-10.08,10.12-12.12,17.44a7.26,7.26,0,0,0,2.64.31c1.88-6.52,6-12.67,10.81-15.45a9.13,9.13,0,0,1,4.4-1.34,5.17,5.17,0,0,1,2.58.67c2.31,1.33,3.64,4.57,3.64,8.88a16.87,16.87,0,0,1-.13,2.12l2.52,1.46a24.37,24.37,0,0,0,.27-3.58C333.22,270.52,331.41,266.44,328.25,264.61Z" style="fill:#263238"></path><path d="M283.64,265.58c-2,1.15-2,3,0,4.16a7.86,7.86,0,0,0,7.16,0c2-1.15,2-3,0-4.16A7.92,7.92,0,0,0,283.64,265.58Z" style="opacity:0.1"></path><path d="M306.66,252.15c-2.73-1.58-6.15-1.33-9.64.67-5.4,3.14-10.08,10.12-12.12,17.44a7.46,7.46,0,0,0,2.64.32c1.88-6.52,6-12.67,10.81-15.46a9.13,9.13,0,0,1,4.39-1.34,5.21,5.21,0,0,1,2.59.67c2.31,1.33,3.63,4.57,3.63,8.88a16.64,16.64,0,0,1-.12,2.12l2.52,1.46a24.34,24.34,0,0,0,.26-3.58C311.62,258.05,309.82,254,306.66,252.15Z" style="fill:#263238"></path><path d="M262,253.11c-2,1.15-2,3,0,4.16a7.86,7.86,0,0,0,7.16,0c2-1.15,2-3,0-4.16A7.92,7.92,0,0,0,262,253.11Z" style="opacity:0.1"></path><path d="M285.06,239.68c-2.73-1.58-6.15-1.33-9.64.67-5.4,3.14-10.08,10.12-12.12,17.44a7.26,7.26,0,0,0,2.64.32c1.88-6.52,6-12.67,10.81-15.45a9,9,0,0,1,4.4-1.35,5.2,5.2,0,0,1,2.58.67c2.31,1.33,3.64,4.57,3.64,8.88a16.91,16.91,0,0,1-.13,2.13l2.52,1.45a24.25,24.25,0,0,0,.26-3.58C290,245.58,288.22,241.5,285.06,239.68Z" style="fill:#263238"></path><path d="M240.45,240.64c-2,1.15-2,3,0,4.16a7.86,7.86,0,0,0,7.16,0c2-1.15,2-3,0-4.16A7.92,7.92,0,0,0,240.45,240.64Z" style="opacity:0.1"></path><path d="M263.47,227.21c-2.73-1.58-6.15-1.33-9.64.67-5.4,3.14-10.08,10.12-12.12,17.44a7.46,7.46,0,0,0,2.64.32c1.88-6.52,6-12.67,10.81-15.46a9.13,9.13,0,0,1,4.39-1.34,5.21,5.21,0,0,1,2.59.67c2.3,1.33,3.63,4.57,3.63,8.88a16.9,16.9,0,0,1-.12,2.13l2.52,1.45a25.8,25.8,0,0,0,.26-3.58C268.43,233.11,266.62,229,263.47,227.21Z" style="fill:#263238"></path><path d="M218.85,228.18c-2,1.15-2,3,0,4.15a7.86,7.86,0,0,0,7.16,0c2-1.14,2-3,0-4.15A7.86,7.86,0,0,0,218.85,228.18Z" style="opacity:0.1"></path><path d="M241.87,214.74c-2.73-1.58-6.15-1.33-9.64.68-5.4,3.13-10.08,10.11-12.12,17.43a7.26,7.26,0,0,0,2.64.32c1.88-6.52,6-12.67,10.81-15.45a9,9,0,0,1,4.4-1.35,5.17,5.17,0,0,1,2.58.67c2.31,1.33,3.63,4.58,3.63,8.88a16.9,16.9,0,0,1-.12,2.13l2.52,1.45a25.69,25.69,0,0,0,.26-3.58C246.83,220.64,245,216.57,241.87,214.74Z" style="fill:#263238"></path><path d="M248.79,418.32a1,1,0,0,1-.5-1.86l133.35-77a1,1,0,1,1,1,1.73l-133.35,77A1,1,0,0,1,248.79,418.32Z" style="fill:#ebebeb"></path><path d="M236.27,411a1,1,0,0,1-.86-.5,1,1,0,0,1,.36-1.37l133.36-77a1,1,0,0,1,1,1.73l-133.36,77A1,1,0,0,1,236.27,411Z" style="fill:#ebebeb"></path><path d="M223.76,403.57a1,1,0,0,1-.5-1.87l133.35-77a1,1,0,1,1,1,1.73l-133.35,77A1,1,0,0,1,223.76,403.57Z" style="fill:#ebebeb"></path><path d="M211.24,396.19a1,1,0,0,1-.86-.5,1,1,0,0,1,.36-1.37l133.35-77a1,1,0,1,1,1,1.73l-133.35,77A1,1,0,0,1,211.24,396.19Z" style="fill:#ebebeb"></path><path d="M198.73,388.81a1,1,0,0,1-.5-1.87l133.35-77a1,1,0,1,1,1,1.73l-133.35,77A1,1,0,0,1,198.73,388.81Z" style="fill:#ebebeb"></path><path d="M186.21,381.43a1,1,0,0,1-.5-1.87l133.35-77a1,1,0,0,1,1.37.37,1,1,0,0,1-.37,1.36l-133.35,77A1,1,0,0,1,186.21,381.43Z" style="fill:#ebebeb"></path><path d="M173.7,374.05a1,1,0,0,1-.5-1.87l133.35-77a1,1,0,0,1,1,1.73l-133.35,77A1,1,0,0,1,173.7,374.05Z" style="fill:#ebebeb"></path><path d="M161.18,366.67a1,1,0,0,1-.5-1.87l133.35-77a1,1,0,0,1,1.37.37,1,1,0,0,1-.37,1.36l-133.35,77A1,1,0,0,1,161.18,366.67Z" style="fill:#ebebeb"></path><path d="M148.67,359.29a1,1,0,0,1-.5-1.87l133.35-77a1,1,0,0,1,1.36.37,1,1,0,0,1-.36,1.36l-133.35,77A1,1,0,0,1,148.67,359.29Z" style="fill:#ebebeb"></path><path d="M136.15,351.91a1,1,0,0,1-.5-1.87l133.35-77a1,1,0,0,1,1.37.37,1,1,0,0,1-.37,1.36l-133.35,77A1,1,0,0,1,136.15,351.91Z" style="fill:#ebebeb"></path><path d="M123.64,344.53a1,1,0,0,1-.5-1.87l133.35-77a1,1,0,0,1,1.36.37,1,1,0,0,1-.36,1.36l-133.35,77A1,1,0,0,1,123.64,344.53Z" style="fill:#ebebeb"></path><path d="M111.12,337.15a1,1,0,0,1-.5-1.87l133.35-77a1,1,0,0,1,1.37.37A1,1,0,0,1,245,260L111.62,337A.93.93,0,0,1,111.12,337.15Z" style="fill:#ebebeb"></path><path d="M98.61,329.77a1,1,0,0,1-.5-1.87l133.35-77a1,1,0,0,1,1,1.73l-133.35,77A.93.93,0,0,1,98.61,329.77Z" style="fill:#ebebeb"></path><path d="M86.09,322.39a1,1,0,0,1-.5-1.87l133.35-77a1,1,0,1,1,1,1.74l-133.35,77A1,1,0,0,1,86.09,322.39Z" style="fill:#ebebeb"></path><path d="M73.58,315a1,1,0,0,1-.87-.5,1,1,0,0,1,.36-1.37l133.36-77a1,1,0,0,1,1,1.74l-133.36,77A1,1,0,0,1,73.58,315Z" style="fill:#ebebeb"></path><path d="M262.19,426a2.44,2.44,0,0,1-1.22-4.54l140.22-81.07a2.43,2.43,0,0,1,2.43,4.22L263.41,425.64A2.43,2.43,0,0,1,262.19,426Z" style="fill:#0072FF"></path><g style="opacity:0.25"><path d="M305.26,333.05c-1.1-1.67-3.13-2.34-4.86-3.12-.71-.32-1.51-.75-2.35-1.19-1.1-1.76-2.55-4.63-.62-5,1.14-.22,3.37,1,4.62,1.36.7.21.54-.81.05-1-2.12-.83-6.17-3.45-7,.15a5.42,5.42,0,0,0,.49,3.31,7,7,0,0,0-3.12-.57c-1,.09-1.86.12-2.21,1.29-.19.64.09.92.13,1.4a1.25,1.25,0,0,0,1,1,10.14,10.14,0,0,0-1.13-.09c-1.49-.05-5.59-1.05-6.54.82-.4.77.5,1.83.37,2.12-.06.14-3,1.12-3.49,1.44-.23.14-.07.95-.2,1-.45.26-3.45,0-4.33,0-2.38.2-8.27-.69-7.5,3,.08.4.4.34.48,1a3,3,0,0,0,.18.89c-.09,0-.26.06-.57.5-.2.28-1,.19-1.31.56-1.13,1.42.59,1.91-.81,2.8-2,1.24-6.12-1.28-8.13.11-1.8,1.24.54,4.8-2.63,4.87-.7,0-.29,1,.24,1.09,3,.26,2.64-.3,3.2-2.72.93-3.94,6.82-1.22,10.13-2.14.38-.1.41-.58.23-.87-.86-1.4.15-2.17,1.46-2.77a.57.57,0,0,0,.24-.86c-.36-.65-1.61-2.62-.84-3.54a19.11,19.11,0,0,1,3.5-.41,73.23,73.23,0,0,1,7.7-.13.54.54,0,0,0,.49-.73c-.37-.83,3-1.36,3.69-1.52a.54.54,0,0,0,.32-.7c-1.59-3.95,4.26-2.5,6.69-2.11a.58.58,0,0,0,.68-.75c-.38-1.33-3.32-2.67.16-3.16a5.73,5.73,0,0,1,2.67.64,18.5,18.5,0,0,0,6.09,6.27C304.69,336.53,307,335.74,305.26,333.05Zm-1.08.71c.72,1-1.56.19-1.84.06-1.35-.6-2.25-2.08-3-3.25.71.39,1.34.74,1.81,1A7,7,0,0,1,304.18,333.76Z"></path><path d="M245.8,358.09c-.44-1.71-.49-3.59,1.11-3.8.76-.1.22-1.15-.36-1.16-2.15-.08-2.82,1.79-2.54,4a12.69,12.69,0,0,0-2.67-.9c-1.4-.27-2.3-.31-2.76,1.12-.28.85.4,1.4.35,2.17-.08,1.12,1,.66-.64,1.1a10.7,10.7,0,0,1-2-.2c-1.7-.08-1.85,0-2.89.9s1.56,1.31-1.55.82a6.28,6.28,0,0,0-2.43-.34c-1.14.26-1.74.58-1.56,1.85.09.57,1.31,1.32,1.31,1.68-.07,2.74-3,.42-4.09,0a.51.51,0,0,0-.7.43c0,1.35.9,1.83-1.06,1.95-.24,0-1.59-.75-2-.76-1.26,0-2.42,1.65-4.07,1.51-.45,0-.6.37-.47.74.46,1.23,1.13,2-1.36,3,0,0-2.93-.36-2.86-.36-.71,0-.26,1.16.29,1.2,1.14.08,5,1.7,6.11.17.84-1.13-.81-2.44-.4-3.16-.27.48,2.19-.67,2.46-.76a7.21,7.21,0,0,1,1.93-.53c.34,0,.63.56,1,.56s1,.23,1.43,0,.54-.8.71-.92c.44-.29-.56-.63.3-.93.62-.21,1.16.42,1.74.6.93.29,2.34,1,3.13,0,1-1.29-.86-2.19-.68-3.06.39-1.95,3.17-.48,4.45-1.34a.54.54,0,0,0,.18-.6c-.79-2.69,4.09-.58,5.63-.87.27-.05.56-.23.52-.56s-.61-1.67-.6-1.69c.38-1.61,2.6-1.43,3.63-1.16,1,3.27,3.58,6.58,6.42,5.69a.49.49,0,0,0,.35-.49C251,361.86,248.43,359.62,245.8,358.09Zm1,2.7c-.09-.17-.22-.44-.37-.78a6.9,6.9,0,0,1,2,2C249,363.61,247.08,361.24,246.81,360.79Z"></path><path d="M198.84,273.93c-1.1-1.66-3.12-2.33-4.86-3.12-.71-.32-1.51-.75-2.35-1.19-1.09-1.76-2.54-4.62-.62-5,1.15-.22,3.38,1,4.63,1.36.69.21.53-.81,0-1-2.12-.84-6.17-3.46-7,.14a5.61,5.61,0,0,0,.49,3.32,6.93,6.93,0,0,0-3.12-.58c-1,.09-1.85.12-2.2,1.29-.19.64.09.92.13,1.41a1.24,1.24,0,0,0,1,1,8.92,8.92,0,0,0-1.13-.08c-1.5-.06-5.59-1.06-6.55.81-.39.77.51,1.83.38,2.13-.06.13-3,1.11-3.49,1.43-.23.14-.08.95-.2,1-.45.26-3.46,0-4.33,0-2.38.19-8.27-.7-7.5,3,.08.4.4.34.47,1a3.56,3.56,0,0,0,.18.9c-.08,0-.25.06-.56.49s-1,.19-1.32.57c-1.13,1.41.6,1.91-.81,2.79-2,1.24-6.11-1.28-8.13.12-1.79,1.23.54,4.8-2.62,4.86-.7,0-.3,1,.23,1.09,3,.26,2.64-.3,3.21-2.71.93-3.95,6.82-1.23,10.12-2.15a.56.56,0,0,0,.24-.86c-.87-1.4.14-2.18,1.45-2.78a.57.57,0,0,0,.24-.86c-.35-.65-1.61-2.61-.84-3.54a20.26,20.26,0,0,1,3.51-.41,73,73,0,0,1,7.69-.13.55.55,0,0,0,.5-.73c-.37-.83,2.95-1.35,3.69-1.52a.54.54,0,0,0,.32-.7c-1.59-3.95,4.26-2.5,6.69-2.11a.58.58,0,0,0,.68-.75c-.38-1.33-3.32-2.67.16-3.15a5.54,5.54,0,0,1,2.67.64,18.62,18.62,0,0,0,6.08,6.26C198.28,277.42,200.62,276.62,198.84,273.93Zm-1.07.71c.72,1-1.56.19-1.85.06-1.35-.6-2.24-2.08-3-3.24.71.38,1.35.74,1.81,1A7.24,7.24,0,0,1,197.77,274.64Z"></path><path d="M139.38,299c-.43-1.71-.48-3.59,1.11-3.8.77-.1.22-1.14-.35-1.16-2.15-.07-2.82,1.8-2.55,4.05a12.17,12.17,0,0,0-2.66-.91c-1.4-.26-2.31-.31-2.77,1.12-.27.85.41,1.4.36,2.17-.08,1.12,1,.66-.65,1.1a9.88,9.88,0,0,1-2-.2c-1.71-.08-1.86,0-2.89.9s1.56,1.32-1.55.82a6.33,6.33,0,0,0-2.44-.34c-1.14.26-1.74.59-1.55,1.85.08.57,1.31,1.32,1.3,1.69-.06,2.73-3,.41-4.08,0a.51.51,0,0,0-.7.43c0,1.35.9,1.83-1.07,1.95-.24,0-1.59-.74-2-.75-1.27,0-2.42,1.64-4.07,1.51-.45,0-.6.36-.47.73.45,1.23,1.12,2-1.36,3.05-.06,0-2.93-.37-2.86-.36-.72,0-.26,1.15.29,1.19,1.14.09,5,1.71,6.11.18.84-1.13-.81-2.45-.4-3.16-.27.47,2.19-.68,2.46-.77a7.24,7.24,0,0,1,1.92-.53c.35,0,.64.56,1,.56s1,.23,1.43,0,.54-.8.71-.92c.44-.28-.56-.63.29-.93.63-.21,1.17.42,1.75.6.93.3,2.34,1,3.13,0,1-1.29-.87-2.19-.69-3.06.4-1.95,3.18-.47,4.45-1.34a.51.51,0,0,0,.18-.6c-.78-2.69,4.1-.58,5.64-.87.27-.05.56-.23.52-.56s-.61-1.66-.61-1.69c.39-1.61,2.61-1.43,3.63-1.16,1,3.28,3.59,6.58,6.42,5.7a.5.5,0,0,0,.36-.5C144.55,302.74,142,300.5,139.38,299Zm1,2.7a7.18,7.18,0,0,1-.37-.77,6.71,6.71,0,0,1,2,2C142.57,304.49,140.67,302.12,140.4,301.67Z"></path><path d="M297.79,379.29c-1.1-1.66-3.13-2.33-4.86-3.11-.71-.32-1.51-.76-2.35-1.2-1.1-1.76-2.55-4.62-.62-5,1.15-.22,3.38,1,4.62,1.36.7.2.54-.82.05-1-2.12-.83-6.17-3.46-7,.15a5.51,5.51,0,0,0,.49,3.31,7.09,7.09,0,0,0-3.12-.58c-1,.1-1.85.12-2.2,1.29-.2.65.08.93.12,1.41a1.22,1.22,0,0,0,1,1c-.12,0-.44-.05-1.13-.08-1.5-.06-5.6-1.05-6.55.81-.39.77.51,1.84.38,2.13-.06.13-3,1.12-3.5,1.43-.23.14-.07.95-.2,1-.44.25-3.45,0-4.32,0-2.39.19-8.28-.69-7.51,3,.09.4.4.35.48,1a3.43,3.43,0,0,0,.18.89c-.09,0-.25.06-.56.5-.2.27-1,.19-1.32.56-1.13,1.42.6,1.91-.81,2.79-2,1.24-6.11-1.27-8.13.12-1.79,1.24.54,4.8-2.63,4.86-.7,0-.29,1,.24,1.09,3,.26,2.64-.29,3.21-2.71.92-3.95,6.81-1.23,10.12-2.14a.58.58,0,0,0,.24-.87c-.87-1.4.14-2.17,1.45-2.78a.57.57,0,0,0,.24-.86c-.35-.64-1.61-2.61-.84-3.54a19.26,19.26,0,0,1,3.51-.4,73,73,0,0,1,7.69-.14.54.54,0,0,0,.49-.73c-.37-.82,3-1.35,3.7-1.52a.54.54,0,0,0,.31-.7c-1.59-3.94,4.27-2.49,6.7-2.11a.57.57,0,0,0,.67-.74c-.38-1.34-3.31-2.67.17-3.16a5.78,5.78,0,0,1,2.67.64,18.57,18.57,0,0,0,6.08,6.27C297.22,382.78,299.56,382,297.79,379.29Zm-1.08.72c.73,1-1.56.18-1.84.06-1.35-.61-2.25-2.08-3.05-3.25.71.39,1.35.74,1.81.95A7.1,7.1,0,0,1,296.71,380Z"></path><path d="M334.33,349.09c-.43-1.72-.49-3.6,1.11-3.81.76-.1.22-1.14-.35-1.16-2.16-.07-2.83,1.8-2.55,4.05a12.23,12.23,0,0,0-2.67-.91c-1.39-.26-2.3-.31-2.76,1.12-.28.85.41,1.4.35,2.17-.08,1.12,1.05.66-.64,1.1a9.9,9.9,0,0,1-2-.2c-1.7-.08-1.85,0-2.89.9s1.56,1.32-1.54.82a6.33,6.33,0,0,0-2.44-.34c-1.14.26-1.74.59-1.56,1.85.09.57,1.32,1.32,1.31,1.69-.07,2.73-3,.41-4.09,0a.51.51,0,0,0-.7.43c-.05,1.35.9,1.83-1.06,1.95-.24,0-1.59-.74-2-.75-1.27,0-2.43,1.64-4.08,1.51-.45,0-.6.37-.47.73.46,1.23,1.13,2-1.36,3.05-.05,0-2.92-.37-2.86-.36-.71,0-.26,1.15.3,1.2,1.13.08,5,1.7,6.11.17.83-1.13-.82-2.44-.41-3.16-.27.47,2.19-.68,2.46-.77a6.85,6.85,0,0,1,1.93-.52c.34,0,.63.55,1,.55s1,.23,1.42,0,.54-.8.71-.92c.44-.28-.56-.63.3-.93.62-.21,1.16.42,1.74.6.93.3,2.34,1,3.14,0,1-1.29-.87-2.19-.69-3.06.4-2,3.18-.47,4.45-1.34a.53.53,0,0,0,.18-.6c-.79-2.69,4.1-.58,5.63-.86.28-.06.57-.24.53-.56s-.61-1.67-.61-1.69c.38-1.62,2.61-1.44,3.63-1.17,1,3.28,3.58,6.58,6.42,5.7a.5.5,0,0,0,.36-.5C339.49,352.85,337,350.61,334.33,349.09Zm1,2.69A7.18,7.18,0,0,1,335,351a6.71,6.71,0,0,1,2,2C337.51,354.6,335.62,352.24,335.35,351.78Z"></path><path d="M187.51,317.21c-1.1-1.67-3.13-2.33-4.86-3.12-.71-.32-1.51-.75-2.35-1.19-1.09-1.76-2.54-4.63-.62-5,1.15-.22,3.38,1,4.62,1.36.7.21.54-.81,0-1-2.11-.84-6.17-3.46-7,.14a5.5,5.5,0,0,0,.49,3.31,6.94,6.94,0,0,0-3.12-.57c-1,.09-1.85.12-2.2,1.29-.19.64.08.92.13,1.4a1.24,1.24,0,0,0,1,1,10.14,10.14,0,0,0-1.13-.09c-1.5,0-5.6-1-6.55.82-.39.77.51,1.83.38,2.12-.06.14-3,1.12-3.49,1.44-.23.14-.08.95-.21,1-.44.26-3.45,0-4.32,0-2.39.2-8.28-.69-7.5,3,.08.4.4.34.47,1a3.43,3.43,0,0,0,.18.89c-.09,0-.25.06-.56.5-.2.28-1,.19-1.32.56-1.13,1.42.6,1.91-.81,2.8-2,1.24-6.11-1.28-8.13.11-1.79,1.24.54,4.8-2.62,4.87-.7,0-.3,1,.23,1.09,3,.26,2.64-.3,3.21-2.72.93-3.95,6.81-1.22,10.12-2.14.38-.1.42-.58.24-.87-.87-1.4.14-2.17,1.45-2.77a.57.57,0,0,0,.24-.86c-.35-.65-1.6-2.62-.84-3.54a19.33,19.33,0,0,1,3.51-.41,73,73,0,0,1,7.69-.14.54.54,0,0,0,.5-.73c-.37-.82,3-1.35,3.69-1.51a.54.54,0,0,0,.32-.7c-1.59-4,4.26-2.5,6.69-2.12a.57.57,0,0,0,.68-.74c-.39-1.33-3.32-2.67.16-3.16a5.78,5.78,0,0,1,2.67.64,18.57,18.57,0,0,0,6.08,6.27C187,320.69,189.28,319.9,187.51,317.21Zm-1.07.71c.72,1-1.56.19-1.85.06-1.35-.61-2.24-2.08-3.05-3.25.71.39,1.35.74,1.81,1A7.16,7.16,0,0,1,186.44,317.92Z"></path><path d="M224.05,287c-.43-1.72-.48-3.6,1.11-3.81.77-.1.22-1.14-.35-1.16-2.15-.07-2.83,1.8-2.55,4.05a12.23,12.23,0,0,0-2.67-.91c-1.39-.26-2.3-.3-2.76,1.12-.27.85.41,1.41.36,2.17-.08,1.13,1.05.66-.65,1.11a10.56,10.56,0,0,1-2-.21c-1.71-.07-1.86,0-2.9.91s1.57,1.31-1.54.81a6.52,6.52,0,0,0-2.44-.33c-1.14.25-1.74.58-1.55,1.85.08.56,1.31,1.32,1.3,1.68-.06,2.73-3,.42-4.08,0a.51.51,0,0,0-.7.42c0,1.35.9,1.83-1.07,2-.24,0-1.59-.74-2-.75-1.27,0-2.42,1.65-4.07,1.51-.46,0-.61.37-.47.74.45,1.23,1.12,2-1.36,3-.06,0-2.93-.36-2.87-.36-.71,0-.25,1.16.3,1.2,1.13.08,5,1.7,6.11.17.84-1.13-.81-2.44-.4-3.16-.27.47,2.19-.67,2.46-.76a6.79,6.79,0,0,1,1.92-.53c.35,0,.63.56,1,.55s1,.23,1.43,0,.53-.81.71-.92c.43-.29-.57-.64.29-.93.63-.22,1.17.41,1.75.6.93.29,2.34,1,3.13,0,1-1.3-.87-2.2-.69-3.07.4-1.94,3.18-.47,4.45-1.33a.52.52,0,0,0,.18-.6c-.78-2.69,4.1-.59,5.64-.87.27,0,.56-.23.52-.56s-.61-1.67-.61-1.69c.39-1.62,2.61-1.43,3.63-1.16,1,3.27,3.59,6.57,6.42,5.69a.5.5,0,0,0,.36-.5C229.22,290.76,226.69,288.52,224.05,287Zm1,2.69a6.34,6.34,0,0,1-.37-.77,6.71,6.71,0,0,1,2,2C227.24,292.52,225.34,290.15,225.07,289.69Z"></path><path d="M265,309.22c-1.1-1.67-3.12-2.33-4.86-3.12-.71-.32-1.51-.75-2.34-1.19-1.1-1.76-2.55-4.63-.63-5,1.15-.22,3.38,1,4.63,1.36.69.21.53-.81.05-1-2.12-.83-6.17-3.46-7.05.14a5.57,5.57,0,0,0,.49,3.31,7.2,7.2,0,0,0-3.12-.57c-1,.09-1.85.12-2.2,1.29-.19.64.09.92.13,1.4a1.23,1.23,0,0,0,1,1,8.92,8.92,0,0,0-1.13-.08c-1.5-.06-5.59-1.05-6.55.81-.39.77.51,1.84.38,2.12s-3,1.12-3.49,1.44c-.23.14-.08.95-.21,1-.44.25-3.45-.05-4.32,0-2.38.19-8.28-.7-7.5,3,.08.4.4.34.47,1a4.12,4.12,0,0,0,.18.9c-.08,0-.25.06-.56.49s-1,.2-1.32.57c-1.13,1.41.6,1.91-.81,2.79-2,1.24-6.11-1.28-8.13.12-1.79,1.23.54,4.8-2.62,4.86-.7,0-.3,1,.24,1.09,3,.26,2.63-.3,3.2-2.72.93-3.94,6.81-1.22,10.12-2.14a.56.56,0,0,0,.24-.86c-.87-1.4.14-2.18,1.45-2.78a.57.57,0,0,0,.24-.86c-.35-.65-1.6-2.61-.84-3.54a19.33,19.33,0,0,1,3.51-.41,73.19,73.19,0,0,1,7.7-.13.55.55,0,0,0,.49-.73c-.37-.83,2.95-1.35,3.69-1.52a.54.54,0,0,0,.32-.7c-1.59-3.95,4.26-2.49,6.69-2.11a.58.58,0,0,0,.68-.75c-.38-1.33-3.32-2.66.16-3.15a5.52,5.52,0,0,1,2.67.64,18.53,18.53,0,0,0,6.08,6.26C264.44,312.71,266.78,311.91,265,309.22Zm-1.07.72c.72,1-1.56.18-1.85.05-1.35-.6-2.24-2.08-3-3.25.7.39,1.34.74,1.8,1A7.18,7.18,0,0,1,263.93,309.94Z"></path><path d="M241.48,332.31c-.44-1.72-.49-3.6,1.11-3.8.76-.1.22-1.15-.36-1.16-2.15-.07-2.82,1.79-2.54,4a12.69,12.69,0,0,0-2.67-.9c-1.4-.27-2.3-.31-2.76,1.12-.28.85.4,1.4.35,2.16-.08,1.13,1,.67-.64,1.11a10.7,10.7,0,0,1-2-.2c-1.7-.08-1.86,0-2.89.9s1.56,1.31-1.55.81a6.47,6.47,0,0,0-2.43-.33c-1.14.26-1.74.59-1.56,1.85.09.57,1.32,1.32,1.31,1.68-.07,2.74-3,.42-4.09,0a.51.51,0,0,0-.7.43c-.05,1.35.9,1.82-1.07,2-.23,0-1.58-.74-2-.76-1.26,0-2.42,1.65-4.07,1.51-.45,0-.6.37-.47.74.46,1.23,1.13,2-1.36,3-.06,0-2.92-.36-2.92-.36-.65,0-.2,1.16.35,1.2,1.14.08,5,1.71,6.11.17.84-1.12-.81-2.44-.4-3.16-.27.48,2.19-.67,2.46-.76a7.21,7.21,0,0,1,1.93-.53c.34,0,.63.56,1,.56s1,.23,1.43,0,.54-.8.71-.92c.44-.28-.56-.64.3-.93.62-.22,1.16.42,1.74.6.93.29,2.34,1,3.14,0,1-1.29-.87-2.19-.69-3.06.4-1.95,3.17-.48,4.45-1.34a.54.54,0,0,0,.18-.6c-.79-2.69,4.09-.58,5.63-.87.27,0,.56-.23.53-.56s-.62-1.67-.61-1.69c.38-1.61,2.6-1.43,3.63-1.16,1,3.27,3.58,6.58,6.42,5.69a.48.48,0,0,0,.35-.49C246.64,336.07,244.11,333.84,241.48,332.31Zm1,2.7c-.1-.17-.23-.44-.38-.77a6.58,6.58,0,0,1,2,2C244.66,337.83,242.76,335.46,242.5,335Z"></path><path d="M274.62,310a1.63,1.63,0,0,0,0-.66c-.47-1.67-2.4-.42-2.74.61-.27.85.41,1.41.36,2.17-.08,1.13,1,.66-.64,1.11a9.94,9.94,0,0,1-2-.21c-1.7-.07-1.86,0-2.89.9s1.56,1.32-1.55.82a6.69,6.69,0,0,0-2.43-.34c-1.15.26-1.75.59-1.56,1.86.09.56,1.31,1.32,1.3,1.68-.06,2.73-3,.42-4.08,0a.52.52,0,0,0-.7.43c0,1.36.9,1.83-1.07,1.95-.23,0-1.58-.74-2-.75-1.27,0-2.42,1.65-4.07,1.51-.45,0-.61.37-.47.73.46,1.24,1.13,2-1.36,3.05-.06,0-2.93-.36-2.93-.36-.65,0-.19,1.16.36,1.2,1.14.08,5,1.7,6.11.17.84-1.13-.81-2.44-.4-3.16-.27.47,2.19-.67,2.46-.77a7.2,7.2,0,0,1,1.93-.52c.34,0,.63.56,1,.55s1,.23,1.43,0,.54-.81.71-.92c.44-.29-.56-.64.3-.93.62-.22,1.16.41,1.74.6.93.29,2.34,1,3.13,0,1-1.3-.86-2.2-.69-3.07.4-1.94,3.18-.47,4.46-1.33a.53.53,0,0,0,.17-.6c-.78-2.69,4.1-.59,5.64-.87.27-.05.56-.23.52-.56-.15-1.25-.56-2.13-.22-3.47A7.38,7.38,0,0,0,274.62,310Z"></path></g><path d="M331.61,336.86l18.59-10.73a.63.63,0,0,1,.65,0l18.72,10.8a.66.66,0,0,1,0,1.13L351,348.79a.63.63,0,0,1-.65,0L331.61,338a.67.67,0,0,1-.32-.57.66.66,0,0,1,.08-.32A.69.69,0,0,1,331.61,336.86Zm36.33.64-17.42-10.05-17.28,10,17.42,10.05Z" style="fill:#455a64"></path><polygon points="346.31 333.34 356.39 334.18 357.24 337.54 351.5 337.06 354.68 350 350.34 349.64 346.31 333.34" style="fill:#0072FF"></polygon><path d="M297.11,316.94l18.58-10.73a.65.65,0,0,1,.66,0L335.06,317a.65.65,0,0,1,0,1.13l-18.58,10.73a.63.63,0,0,1-.65,0l-18.72-10.8a.68.68,0,0,1-.33-.57.57.57,0,0,1,.09-.32A.62.62,0,0,1,297.11,316.94Zm36.32.64L316,307.53l-17.28,10,17.41,10.05Z" style="fill:#455a64"></path><path d="M261.74,296.51l18.58-10.72a.63.63,0,0,1,.65,0l18.72,10.8a.66.66,0,0,1,.33.56.64.64,0,0,1-.33.57l-18.58,10.73a.65.65,0,0,1-.66,0l-18.71-10.8a.68.68,0,0,1-.33-.57.63.63,0,0,1,.09-.33A.78.78,0,0,1,261.74,296.51Zm36.32.64-17.41-10-17.28,10,17.41,10.05Z" style="fill:#455a64"></path><polygon points="276.43 293 286.52 293.83 287.36 297.2 281.62 296.72 284.81 309.66 280.46 309.3 276.43 293" style="fill:#0072FF"></polygon><path d="M226.37,276.09,245,265.36a.68.68,0,0,1,.65,0l18.72,10.81a.65.65,0,0,1,.33.56.66.66,0,0,1-.33.57L245.74,288a.65.65,0,0,1-.66,0l-18.71-10.81a.64.64,0,0,1-.24-.89A.56.56,0,0,1,226.37,276.09Zm36.32.64-17.41-10.05-17.28,10,17.41,10Z" style="fill:#455a64"></path><polygon points="241.26 272.69 251.34 273.52 252.19 276.89 246.44 276.41 249.63 289.35 245.29 288.99 241.26 272.69" style="fill:#0072FF"></polygon><path d="M191,255.67l18.59-10.73a.63.63,0,0,1,.65,0L229,255.75a.64.64,0,0,1,.32.56.67.67,0,0,1-.32.57l-18.59,10.73a.68.68,0,0,1-.65,0L191,256.8a.65.65,0,0,1-.32-.56.63.63,0,0,1,.09-.33A.59.59,0,0,1,191,255.67Zm36.33.64L209.9,246.26l-17.27,10L210,266.29Z" style="fill:#455a64"></path></g></g><g id="freepik--speech-bubble-2--inject-77"><g id="freepik--speech-bubble--inject-77"><path d="M431.76,305.79l-5.66-3.27a.6.6,0,0,1-.27-.23l-1-1.82,3.36-1.94-.1.29Z" style="fill:#0072FF"></path><g style="opacity:0.2"><path d="M431.76,305.79l-5.66-3.27a.6.6,0,0,1-.27-.23l-1-1.82,3.36-1.94-.1.29Z"></path></g><path d="M474.08,218.1a6,6,0,0,0-2.74-4.74l-2.22-1.28a6,6,0,0,0-5.48,0l-52.59,30.38a6,6,0,0,0-2.74,4.73v50.74a6,6,0,0,0,2.74,4.74l2.22,1.29a6.08,6.08,0,0,0,5.48,0l8.89-5.15,3.92,6.78a.58.58,0,0,0,1.05-.1l4.14-11.94,34.85-20.16c2.46-1.4,2.48-2.81,2.48-4.55Z" style="fill:#fafafa"></path><path d="M466.38,212.44a4.59,4.59,0,0,1,2.23.52l2.22,1.29a5.05,5.05,0,0,1,2.23,3.85v50.74c0,1.64,0,2.54-2,3.67l-34.85,20.15-.33.19-.12.36-3.83,11-3.43-5.95-.51-.88-.89.51-8.89,5.14a5,5,0,0,1-4.45,0l-2.23-1.28a5.09,5.09,0,0,1-2.23-3.86V247.19a5.07,5.07,0,0,1,2.23-3.85L464.16,213a4.55,4.55,0,0,1,2.22-.52m0-1a5.58,5.58,0,0,0-2.74.66l-52.59,30.38a6,6,0,0,0-2.74,4.73v50.74a6,6,0,0,0,2.74,4.74l2.22,1.29a6.1,6.1,0,0,0,5.48,0l8.89-5.15,3.92,6.78a.57.57,0,0,0,.5.29.58.58,0,0,0,.55-.39l4.14-11.95,34.85-20.15c2.46-1.4,2.48-2.81,2.48-4.55V218.1a6,6,0,0,0-2.74-4.74l-2.22-1.28a5.58,5.58,0,0,0-2.74-.66Z" style="fill:#0072FF"></path><path d="M408.31,297.93a6,6,0,0,0,2.74,4.74l2.22,1.29a6.15,6.15,0,0,0,5,.23c-1.29.48-2.27-.25-2.27-1.81V251.64a5.67,5.67,0,0,1,.8-2.7l-7.7-4.44a5.64,5.64,0,0,0-.8,2.69Z" style="fill:#0072FF"></path><path d="M474,217.32c-.32-1.16-1.38-1.53-2.64-.8l-52.6,30.38a5.39,5.39,0,0,0-1.93,2l-7.7-4.45a5.67,5.67,0,0,1,1.93-2l52.59-30.38a6.06,6.06,0,0,1,5.47,0l2.24,1.29A6,6,0,0,1,474,217.32Z" style="fill:#0072FF"></path><path d="M474,217.32c-.32-1.16-1.38-1.53-2.64-.8l-52.6,30.38a5.39,5.39,0,0,0-1.93,2l-7.7-4.45a5.67,5.67,0,0,1,1.93-2l52.59-30.38a6.06,6.06,0,0,1,5.47,0l2.24,1.29A6,6,0,0,1,474,217.32Z" style="fill:#fff;opacity:0.4"></path><path d="M438.33,252.28l3.22-9.32.23-.49a1.19,1.19,0,0,1,.5-.54l1.15-.67a.28.28,0,0,1,.33,0,.41.41,0,0,1,.13.35v14.61a1.1,1.1,0,0,1-.13.51.83.83,0,0,1-.33.36l-1.37.8a.27.27,0,0,1-.32,0,.41.41,0,0,1-.14-.35V248.7l-2.2,6.36a5.5,5.5,0,0,1-.24.51,1.06,1.06,0,0,1-.39.42l-.88.51a.35.35,0,0,1-.39,0,.91.91,0,0,1-.24-.24l-2.2-3.81v8.84a1.09,1.09,0,0,1-.14.51.88.88,0,0,1-.32.36l-1.38.8a.27.27,0,0,1-.32,0,.41.41,0,0,1-.13-.35V248a1.07,1.07,0,0,1,.13-.5.85.85,0,0,1,.32-.37l1.16-.67c.22-.13.39-.14.5,0l.23.23Z" style="fill:#455a64"></path><path d="M449.06,253.21l-3.36-8.42a.66.66,0,0,1,0-.15,1.07,1.07,0,0,1,.13-.5.81.81,0,0,1,.33-.37l1.27-.74a.34.34,0,0,1,.35,0,.44.44,0,0,1,.21.24l2.25,5.69,2.26-8.29a1.82,1.82,0,0,1,.2-.48,1,1,0,0,1,.36-.39l1.27-.73a.29.29,0,0,1,.32,0,.43.43,0,0,1,.14.36.78.78,0,0,1,0,.16L450,257.06a2.34,2.34,0,0,1-.21.48.93.93,0,0,1-.35.38l-1.28.74a.27.27,0,0,1-.32,0,.39.39,0,0,1-.13-.35,1,1,0,0,1,0-.17Z" style="fill:#455a64"></path><path d="M428.24,287.65a3.48,3.48,0,0,0,.73-.56,5,5,0,0,0,.68-.86,5.18,5.18,0,0,0,.5-1.09,4,4,0,0,0,.19-1.26v-.83c-.09.19-.21.4-.35.64a5.85,5.85,0,0,1-.54.75,6.45,6.45,0,0,1-.73.76,5.52,5.52,0,0,1-.94.68,2.75,2.75,0,0,1-1.53.45,1.84,1.84,0,0,1-1.17-.5,3.07,3.07,0,0,1-.77-1.26,6.23,6.23,0,0,1-.31-1.82c0-.22,0-.48,0-.78s0-.57,0-.8a10.6,10.6,0,0,1,.31-2.18,11.12,11.12,0,0,1,.77-2.14,8.79,8.79,0,0,1,1.17-1.85,5.47,5.47,0,0,1,1.53-1.33,3.83,3.83,0,0,1,.94-.41,2.9,2.9,0,0,1,.73-.08,1.65,1.65,0,0,1,.54.13,2.12,2.12,0,0,1,.35.24V273a1.12,1.12,0,0,1,.14-.51.88.88,0,0,1,.32-.36l1.29-.75a.27.27,0,0,1,.32,0,.4.4,0,0,1,.14.35v10.6a9.7,9.7,0,0,1-1.15,4.79,8.36,8.36,0,0,1-3.16,3.22,4.9,4.9,0,0,1-1.6.62,2.59,2.59,0,0,1-1.29-.08,1.76,1.76,0,0,1-.86-.65,2.22,2.22,0,0,1-.36-1.12,1,1,0,0,1,.13-.5.94.94,0,0,1,.33-.37l1.16-.67a.35.35,0,0,1,.4,0,2.45,2.45,0,0,1,.29.23.86.86,0,0,0,.6.29A2.55,2.55,0,0,0,428.24,287.65Zm-2-7.6a9,9,0,0,0,0,1.27c.07.94.3,1.52.68,1.72a1.4,1.4,0,0,0,1.41-.16,3.9,3.9,0,0,0,1.4-1.47,5.14,5.14,0,0,0,.65-2.25c0-.24,0-.53,0-.88s0-.63,0-.84a1.8,1.8,0,0,0-.65-1.48,1.32,1.32,0,0,0-1.4.13,4,4,0,0,0-1.41,1.46A5.73,5.73,0,0,0,426.2,280.05Z" style="fill:#455a64"></path><path d="M438.77,267.33a3.9,3.9,0,0,1,1.69-.59,2,2,0,0,1,1.3.31,2.43,2.43,0,0,1,.88,1.07,4.59,4.59,0,0,1,.39,1.72c0,.13,0,.3,0,.52v1.25c0,.2,0,.38,0,.52a10.43,10.43,0,0,1-.39,2.17,10,10,0,0,1-.88,2.07,9.34,9.34,0,0,1-1.3,1.81,7.27,7.27,0,0,1-1.69,1.36,4,4,0,0,1-1.69.59,2.13,2.13,0,0,1-1.3-.3,2.37,2.37,0,0,1-.88-1.07,5.25,5.25,0,0,1-.39-1.72c0-.13,0-.29,0-.49s0-.41,0-.62,0-.42,0-.64,0-.39,0-.53a9.25,9.25,0,0,1,.38-2.16,10.77,10.77,0,0,1,.89-2.1,9,9,0,0,1,1.3-1.81A7.27,7.27,0,0,1,438.77,267.33Zm2.05,3.9a2.46,2.46,0,0,0-.24-1,.94.94,0,0,0-.49-.46,1,1,0,0,0-.62,0,2.79,2.79,0,0,0-.7.3,5.31,5.31,0,0,0-.7.5,3.85,3.85,0,0,0-.62.74,4.12,4.12,0,0,0-.49,1,5.09,5.09,0,0,0-.24,1.31c0,.13,0,.28,0,.47s0,.37,0,.57,0,.38,0,.57,0,.33,0,.43a2.55,2.55,0,0,0,.24,1,.92.92,0,0,0,.49.45.94.94,0,0,0,.62,0,2.79,2.79,0,0,0,.7-.3,3.94,3.94,0,0,0,.7-.5,3.78,3.78,0,0,0,.62-.73,4.6,4.6,0,0,0,.49-1,5,5,0,0,0,.24-1.3c0-.12,0-.27,0-.45v-1.15C440.84,271.49,440.83,271.35,440.82,271.23Z" style="fill:#455a64"></path><path d="M445,266.86a5.68,5.68,0,0,1,.31-1.19,8,8,0,0,1,.69-1.42,8.43,8.43,0,0,1,1.11-1.42,6.64,6.64,0,0,1,1.52-1.18,4.51,4.51,0,0,1,1.56-.6,1.79,1.79,0,0,1,1.19.21,1.87,1.87,0,0,1,.77,1,5.57,5.57,0,0,1,.27,1.89v6.65a1.07,1.07,0,0,1-.13.51.88.88,0,0,1-.32.36l-1.29.75a.27.27,0,0,1-.32,0,.4.4,0,0,1-.14-.35v-.74a7.41,7.41,0,0,1-1,1.71,5.76,5.76,0,0,1-1.7,1.45,3.62,3.62,0,0,1-1.31.49,1.37,1.37,0,0,1-1-.18,1.61,1.61,0,0,1-.61-.77,3.48,3.48,0,0,1-.21-1.29,5.55,5.55,0,0,1,.83-2.92,9.74,9.74,0,0,1,2.22-2.48l2.77-2.23c0-.62-.15-1-.46-1.05a1.55,1.55,0,0,0-1.13.27,2.54,2.54,0,0,0-.67.54,5,5,0,0,0-.45.7,4,4,0,0,1-.28.41,1.49,1.49,0,0,1-.28.23l-1.58.91a.31.31,0,0,1-.29,0C445,267.13,445,267,445,266.86Zm2.83,4.75a4.73,4.73,0,0,0,1-.81,5.14,5.14,0,0,0,.76-1,5,5,0,0,0,.46-1.08,3.82,3.82,0,0,0,.15-1v-.22l-2.31,1.87a5,5,0,0,0-1,1,1.88,1.88,0,0,0-.3,1c0,.32.12.49.36.5A1.66,1.66,0,0,0,447.81,271.61Z" style="fill:#455a64"></path><path d="M456.87,268.25a1.09,1.09,0,0,1-.14.51.85.85,0,0,1-.32.37l-1.29.74a.26.26,0,0,1-.32,0,.42.42,0,0,1-.14-.35V254.69a1.08,1.08,0,0,1,.14-.5.79.79,0,0,1,.32-.37l1.29-.75a.27.27,0,0,1,.32,0,.41.41,0,0,1,.14.35Z" style="fill:#455a64"></path><path d="M464,261.37a.46.46,0,0,0-.11-.34.7.7,0,0,0-.42,0,7.27,7.27,0,0,0-.79.18l-1.25.37a3.49,3.49,0,0,1-1.24.15,1.34,1.34,0,0,1-.79-.34,1.46,1.46,0,0,1-.41-.79,5.17,5.17,0,0,1-.12-1.18,5.45,5.45,0,0,1,.23-1.48,7.59,7.59,0,0,1,.69-1.56,8.21,8.21,0,0,1,1.09-1.45,6.47,6.47,0,0,1,1.48-1.17,5.1,5.1,0,0,1,1.48-.61,2.41,2.41,0,0,1,1.11,0,1.3,1.3,0,0,1,.72.53,1.81,1.81,0,0,1,.28.91.86.86,0,0,1-.12.5.94.94,0,0,1-.33.37l-1.31.76c-.17.1-.3.13-.38.09l-.28-.12a.85.85,0,0,0-.41,0,2.12,2.12,0,0,0-.76.31,4,4,0,0,0-.9.72,1.4,1.4,0,0,0-.39.95.61.61,0,0,0,.09.37.45.45,0,0,0,.36.1,4.09,4.09,0,0,0,.73-.14l1.21-.35q1.52-.45,2.13.12a2.49,2.49,0,0,1,.62,1.91,4.85,4.85,0,0,1-.26,1.47,7,7,0,0,1-.73,1.58,8.71,8.71,0,0,1-1.19,1.5,7.63,7.63,0,0,1-1.59,1.22,4.62,4.62,0,0,1-1.58.63,2.19,2.19,0,0,1-1.16-.06,1.4,1.4,0,0,1-.73-.6,1.88,1.88,0,0,1-.27-.95,1,1,0,0,1,.45-.87l1.31-.76c.17-.1.3-.12.38-.06l.29.2a.83.83,0,0,0,.45.1,2.2,2.2,0,0,0,.86-.34c.17-.1.35-.22.53-.35a4.25,4.25,0,0,0,.5-.44,2.48,2.48,0,0,0,.38-.49A1,1,0,0,0,464,261.37Z" style="fill:#455a64"></path></g></g><g id="freepik--Dog--inject-77"><g id="freepik--dog--inject-77"><path d="M72.66,373.47C70.35,377.61,64,383.34,64.2,390S72,403.9,72,403.9l11.86-4.56Z" style="fill:#37474f"></path><path d="M148.62,413.52c1.47,1.74,6.36,8.07,4.88,19-1.34,9.81-10.15,14.61-16.53,15.29-2.76.29-2.5-1.36-.44-2.18,4.3-1.71,11.42-5.55,11.75-14.42s-4.76-12.81-4.76-12.81Z" style="fill:#37474f"></path><path d="M106.38,396.36c-9.4.26-12.27.78-14.49,4.31s4.88,9.79,4.88,9.79-5.28-1.17-7.76,0-1.37,4.82,7.76,7.45a127.38,127.38,0,0,0,17.84,3.65s13.21-10.13,5.23-19.63S106.38,396.36,106.38,396.36Z" style="fill:#37474f"></path><path d="M126,395a29.34,29.34,0,0,0-11.16-16.22c-8.13-5.72-17.22-10.58-26.07-11.24-4,4.28-11.81,4.33-16.38,4.74,0,3.88-.18,8.37,1,12.94,1.37,5.54,3.34,8.7,7.32,11.33,2.36,1.57,11.61,3.83,14.8,4.14a73.28,73.28,0,0,0,9.6.31,8.78,8.78,0,0,1,4.18.52c1.28.64,2.13,1.89,3.23,2.81,2.09,1.74,5,2.19,7.67,2.38A8.16,8.16,0,0,0,125,406a4.53,4.53,0,0,0,2.12-4.36A43,43,0,0,0,126,395Z" style="fill:#37474f"></path><path d="M125,399l2,2.14.06.5A4.54,4.54,0,0,1,125,406a8.2,8.2,0,0,1-4.81.69c-2.71-.19-5.58-.64-7.67-2.38-1.1-.92-1.95-2.17-3.23-2.81a7.26,7.26,0,0,0-3.38-.54C112.47,396.17,125,399,125,399Z" style="fill:#263238"></path><path d="M151.3,392.38c-2.26-11.25-15.05-21-24.44-24.66-9.94-3.9-28.78-4.55-32.06-8.19l-8.46,12.12c0,.55.06,1.15.07,1.82.08,4.93.41,11.76-2.24,16.74-3,5.63-4.76,7.25-12.4,10.29S55.49,408.09,52.57,411c-2.73,2.74-3.49,5-2.27,6.39,0,0,.11,2.69,3.29,1.89,0,0,1.14,2,3.08,1.37,2.36-.76,3.86-3.16,5.94-5a16.8,16.8,0,0,1,8.63-3.85c3.5-.5,18-3.52,24.05-9.47s7.9-10.73,12.65-12.59,10.59,2.55,12.24,5a19.19,19.19,0,0,1,2.87,7.64s-13.57-5.51-20.38-.78c-3.67,2.55-4.35,8.61,5.56,16.05a60.23,60.23,0,0,0-8.18-2.47c-3.28-.62-6.49-.07-7.33,1.65s1.29,4.3,6.33,6.31c3.26,1.29,28.89,10,42.22.36C153.3,414.85,153.05,401,151.3,392.38Z" style="fill:#455a64"></path><path id="freepik--shadow--inject-77" d="M85.33,374.78c-6.14,2.15-10.76,1.42-12.91.1,0-.9,0-1.78,0-2.63,1-.76,2.48.58,3.52,0l5.28-.14,8-4.36,6.7-7C95.93,364.68,92.87,372.15,85.33,374.78Z" style="opacity:0.1"></path><path d="M72.41,369.53c3.68,2.21,11.28,1.76,15.35-1.75,3.33-2.87,5.24-5.52,6-9.73A3.38,3.38,0,0,1,96,360.4c-.4,2.42-.93,4.29-4.3,7.89-4.37,4.67-13.83,7.38-19.26,4A6.41,6.41,0,0,1,72.41,369.53Z" style="fill:#0072FF"></path><path d="M58.12,376.31c.15-3.72-.27-8,.66-8.48s2,.86,2,.86l-1.52-9.63s-2.32-.33-3.23,2.9S58.12,376.31,58.12,376.31Z" style="fill:#263238"></path><path d="M68.94,348c-4.94,2-8.8,4.56-9.91,8.8-.73,2.78.71,10.51,2.31,14s2.5,4.73,8.16,7.79c2.59,1.4,4.8,4.48,8.54,6.54,3,1.67,4.13,1.84,6.25,1.47a3.61,3.61,0,0,0,2.2-1.39,8.39,8.39,0,0,0,2-.28c2-.57,3.14-2.32,3.27-5a30.92,30.92,0,0,0-.74-7.71c-.39-2.29,1.31-6.21-.56-12-2.36-7.33-6.89-12.46-9.81-13.59S73.74,346,68.94,348Z" style="fill:#455a64"></path><path d="M85.51,372.43c-3.31-.93-5.13-3.8-6.15-3.28s.1,3.64-.47,5.63-1.51,2.61-2.67,4.86a8.57,8.57,0,0,0-.83,3.69,10.59,10.59,0,0,0,2.7,2.1c3,1.67,4,1.67,6.17,1.24a3.54,3.54,0,0,0,2.23-1.48,7.33,7.33,0,0,0,2.07-.21c2-.57,3.15-2.37,3.27-5A21.92,21.92,0,0,0,91.6,376C91.17,373.35,88.82,373.36,85.51,372.43Z" style="fill:#f0f0f0"></path><path d="M91.65,381.33a4.17,4.17,0,0,1-1.26,1.53,6.94,6.94,0,0,1-3.32.63l-1.47.35a4.78,4.78,0,0,1-4.89.82,8.92,8.92,0,0,1-4.55-4.87,8.5,8.5,0,0,0-.77,3.54,10.59,10.59,0,0,0,2.7,2.1c3,1.67,4,1.67,6.17,1.24a3.54,3.54,0,0,0,2.23-1.48,7.33,7.33,0,0,0,2.07-.21A4.45,4.45,0,0,0,91.65,381.33Z" style="fill:#e0e0e0"></path><path d="M87.89,384.08l.23-.3s1-2,0-2.07S83.38,383.61,83,384s.72,1.22,1.18,1.27a9.48,9.48,0,0,0,1.35,0Z" style="fill:#263238"></path><path d="M86.71,385.23a2.24,2.24,0,0,1-2.18,0c-.21-.24-.65-1.05-1-.92s.64.94.64.94a3.43,3.43,0,0,1-1.57-.16c-.75-.28-1.63-1.13-1.5-2s1.36-2.25,3.23-3a4.81,4.81,0,0,1,4.13.07c.51.29.71,1.51.49,2.33a2.25,2.25,0,0,1-.82,1.22s.32-1.22-.07-1.22c-.19,0-.15,1.42-.15,1.42S87.91,384.79,86.71,385.23Z" style="fill:#455a64"></path><path d="M88.56,380.31l-.11-.08a4.81,4.81,0,0,0-4.13-.07,5.79,5.79,0,0,0-3.09,2.55C83.87,382.77,87.64,381.42,88.56,380.31Z" style="fill:#37474f"></path><path d="M83.72,367.17a.3.3,0,0,1-.47-.32,2.72,2.72,0,0,1,1.44-1.65c.89-.51,2.9-1.88,3.3-2.7s1,1-.54,2.39C86.22,366,84.64,366.49,83.72,367.17Z" style="fill:#263238"></path><path d="M74.39,370.68a.3.3,0,0,0,0-.57,3.46,3.46,0,0,0-2.32.16,13.27,13.27,0,0,1-4.16,1c-.91,0,.23,1.39,2.23,1C71.87,372,73.27,371,74.39,370.68Z" style="fill:#263238"></path><path d="M81.65,350.07c2-.1,4,2.6,5.06,4.85A103.42,103.42,0,0,1,91,365.06c.88,2.78,2.15.54,2.63-4.15s1.32-10-.27-12.61S88,344.56,83.85,344c-2.63-.39-4.1.94-6.43,2.09A11,11,0,0,0,81.65,350.07Z" style="fill:#37474f"></path><path d="M75.05,346.21A26.76,26.76,0,0,0,68.94,348a30.22,30.22,0,0,0-5,2.57c3-.57,4.79,1.78,6.85,5.09s3.53,6.24,4.19,5.82S71.68,352,72,350A4.23,4.23,0,0,1,75.05,346.21Z" style="fill:#f0f0f0"></path><path d="M60.73,353.33a9.75,9.75,0,0,0-5.62,2.9,29.74,29.74,0,0,0-3.93,7.07,8.15,8.15,0,0,0,1.21,6.39c1.17,1.9,3.65,5.91,3.92,8.06s1.36,1,1.74-.85-.5-8.5-.74-10.91-.52-6.21,1.93-6.93C61.34,356.23,61.34,354.34,60.73,353.33Z" style="fill:#37474f"></path></g></g><g id="freepik--Character--inject-77"><g id="freepik--character--inject-77"><path id="freepik--shadow--inject-77" d="M267.09,342.59c-3.2-1.23-6.76-1.2-10.13-1.69a64.92,64.92,0,0,1-12.27-2.62A57.32,57.32,0,0,1,231.48,331c-3.95-2.72-7.82-5.56-11.53-8.6a60.1,60.1,0,0,1-8-8c-2.25-2.7-2.73-5.71-2.11-9.21a37.17,37.17,0,0,1,2.67-8q1.84-4.39,3.7-8.78c1.32-3.14,2.66-6.36,2.83-9.77.35-6.95-5-10.9-11.11-12.64-13.21-3.78-27.12-4.48-40.86-4a248.13,248.13,0,0,0-40.57,4.74L85.69,290.35c1.57,4.09,5.32,7.83,8.26,10,9.15,6.82,20.29,10.57,31.55,12.38s22.74,1.75,34.15,1.6c-5.13,12.62.53,28.64,12.45,35.23,2.47,1.37,6.65,2.82,8.69.1a19.56,19.56,0,0,0,3.35-9.27,58.07,58.07,0,0,0-.06-11.34l18.6,11.17a67.07,67.07,0,0,1,8.45,5.68c3.1,2.57,6.05,6.78,9.89,8.19,4.06,1.5,8.54.87,12.69,1.94,4.31,1.12,7.91,4,12.15,5.26a20,20,0,0,0,9.79.78,31.54,31.54,0,0,0,13.93-6.17,13.2,13.2,0,0,0,3.45-3.7,6.15,6.15,0,0,0,.67-4.9C272.73,344.43,269.63,343.56,267.09,342.59Z" style="opacity:0.1"></path><g id="freepik--Bottom--inject-77"><path d="M167.33,304.21c-3.62,1.39-1.14,8.3-1.39,11.22-.21,2.5-.61,3.24-1.16,6.43-.61,3.54-2.34,7,1.94,14.95S176,348,179.94,349.34a9.31,9.31,0,0,0,4.48.19,3.73,3.73,0,0,0,2.33-2.06,6.09,6.09,0,0,0,.21-3.28c-.68-3.75-2.42-7.18-3.43-10.84a89.69,89.69,0,0,1-2.17-11.25c-.58-4.11-1.09-8.38-3.26-11.91a14.86,14.86,0,0,0-4.76-4.77,9.67,9.67,0,0,0-2.57-1.19,7,7,0,0,0-2-.27A4.13,4.13,0,0,0,167.33,304.21Z" style="fill:#263238"></path><path d="M175,296.19a24.78,24.78,0,0,0,2.68-6.4c1.42-4.84,5.52-16.51,5.52-16.51l20.1,9.08s-6.9,11.47-9,14.58a63.61,63.61,0,0,0-6.7,12.05,41.31,41.31,0,0,0-2.22,12.47c-.19,4.54.7,9.21,1.58,13.67.57,2.86,1.63,5.61.76,8.58-.58,2-2.33,3.81-4.4,3.76a6.86,6.86,0,0,1-2.29-.59,19.87,19.87,0,0,1-5.37-3.11C169.8,339,166,331.32,167,323.83c.21-1.54.62-3,.86-4.58a20.65,20.65,0,0,0,0-6.13c-.43-2.79-1.11-5.72-.31-8.5s3.62-3.94,5.57-6A14.09,14.09,0,0,0,175,296.19Z" style="fill:#ffa8a7"></path><path d="M166.33,324s2.3-2.45,7.12-2.62c6.38-.23,11.09,3.13,12.71,6.88.54,2.85,1.58,7.56,2.09,10.19s1.52,6.32-2.48,9.2c-4.18,1.79-9.41-1.53-13-5.48S165.48,331.09,166.33,324Z" style="fill:#455a64"></path><path d="M144.24,240.07s43.57-11.74,60.94-14.17c17.73-2.47,21.32,10.58,18.08,19.38-6.2,16.83-28.95,52.71-28.95,52.71s-12.12-1.88-16.42-10l4.1-16.12-33.64,9.75L141.44,278Z" style="fill:#455a64"></path><path d="M195.56,282.21c-4.51-4.3-7.36-5.06-14.57-6.43L177.89,288c4.3,8.13,16.41,10,16.41,10s2.63-4.14,6.33-10.26A66.32,66.32,0,0,0,195.56,282.21Z" style="fill:#37474f"></path><path d="M182.23,257.26c-1.74,3.63-3.23,6.89-4.46,10s-4.78,3.95-10.12,3.65A81.5,81.5,0,0,1,151,268.1c2.61-7.7.23-16.35.23-16.35-.44,4.79-9.2,18.85-9.2,18.85l-.55,7.44,6.91,3.58L182,271.87c4-15.42,4.77-21.75,11.87-25.83C193.86,246,187.37,246.5,182.23,257.26Z" style="fill:#37474f"></path><path d="M223.76,348.86c.47,3.85,7.78,3.12,10.55,4.07,2.37.81,3,1.37,5.95,2.68,3.29,1.45,6.23,4,15,1.74s13.07-6.3,15.36-9.8a9.52,9.52,0,0,0,1.28-4.3,3.72,3.72,0,0,0-1.44-2.75,6,6,0,0,0-3.13-1c-3.8-.25-7.55.61-11.35.7a89.11,89.11,0,0,1-11.44-.61c-4.13-.44-8.39-1-12.34.27a15.05,15.05,0,0,0-5.79,3.47,9.83,9.83,0,0,0-1.77,2.2,7.24,7.24,0,0,0-.75,1.9A3.8,3.8,0,0,0,223.76,348.86Z" style="fill:#263238"></path><path d="M217.83,339.49a25.18,25.18,0,0,0-5.56-4.15c-4.35-2.55-14.69-9.35-14.69-9.35l16-17.95s7.69,9.59,10.19,12.4,6.08,7.59,9.57,9.95a41,41,0,0,0,11.55,5.18c4.36,1.28,9.11,1.55,13.65,1.77,2.92.14,5.84-.22,8.51,1.34,1.79,1.05,3.13,3.18,2.58,5.18a6.77,6.77,0,0,1-1.12,2.08,20.09,20.09,0,0,1-4.32,4.46c-6.08,4.48-14.41,6.33-21.43,3.5-1.44-.58-2.8-1.35-4.23-1.94a20.46,20.46,0,0,0-6-1.48c-2.81-.26-5.82-.31-8.33-1.76s-2.94-4.47-4.44-6.85A14,14,0,0,0,217.83,339.49Z" style="fill:#ffa8a7"></path><path d="M242.74,354.63s-1.83-2.83-.83-7.54c1.33-6.24,5.72-10,9.75-10.66,2.9.16,7.73.28,10.4.43s6.51.06,8.33,4.64c.72,4.48-3.77,8.75-8.47,11.28S249.39,357.17,242.74,354.63Z" style="fill:#455a64"></path><path d="M224.74,321c-2.86,7.55-12.51,14.88-12.51,14.88s-5-3.39-17.07-10.55c-8.47-5.05-15.6-10.24-21.14-17-13.21-.69-37.58.37-61.86-5.53-17.4-4.23-27.45-23.37-27.62-40.06-.22-21.3,64.09-23.72,64.09-23.72,2.78,5.47,5.08,18.17-3.1,30.88,0,0,21.68,4.25,33.67,7,7.47,1.69,13.82,4.6,19.52,11.72C213.23,306.75,224.74,321,224.74,321Z" style="fill:#455a64"></path><path d="M215,333.56l.75-.69c-6.5-4.53-22.94-16.38-28.19-21.66-1.81-1.82-3.25-3.47-4.53-4.92-3-3.42-5-5.68-8.05-6-.66-.06-2.23-.15-4.6-.28-12.08-.69-44.18-2.51-55.86-6.78-.34-.13-.67-.28-1-.42,3.17-4.22,1.73-11.19-1.74-15.09-3.71-4.18-7.36-13-6.34-17.77l-1-.21c-1.19,5.51,3.1,14.72,6.58,18.64,3.25,3.67,4.53,10.34,1.52,14-11.31-5-18.2-15.54-19.94-30.73l-1,.11c1.89,16.46,9.69,27.65,22.56,32.36,11.82,4.32,44,6.15,56.14,6.84,2.28.13,3.93.22,4.57.28,2.66.26,4.54,2.4,7.39,5.64,1.29,1.46,2.75,3.12,4.58,5C192.4,317.46,209,329.33,215,333.56Z" style="fill:#37474f"></path></g><g id="freepik--Top--inject-77"><path d="M70.48,134.59c-.46-1.84.22-5,1.85-6a7.52,7.52,0,0,1,5-.92c3.74.33,4.33-2.3,4.67-3.12,1.3-3.19,2.94-4.71,5.15-5.33,5.91-1.64,18.49,2.63,15,10.81-.52,1.22-1.44,2.42-1.17,3.72a4.22,4.22,0,0,0,.78,1.5c1.61,2.25,3.41,4.43,4.39,7a9,9,0,0,1,.3,5.95c-.63,1.88-2.75,2.9-3.2,4.74a6.75,6.75,0,0,0,0,2.33,31.32,31.32,0,0,1,.31,4.73,7.53,7.53,0,0,1-1.52,4.41c-1.8,2.16-5,2.59-7.76,2.3a2.46,2.46,0,0,0-1.59.18,3.1,3.1,0,0,0-.87,1.22,6,6,0,0,1-4.75,2.62,8.46,8.46,0,0,1-5.3-1A5.71,5.71,0,0,1,79,165.22a1.89,1.89,0,0,0-.79,2,5.7,5.7,0,0,0,1.08,2.05,5.15,5.15,0,0,1-4.13-2.11,4.2,4.2,0,0,1-.15-4.54,5.4,5.4,0,0,0,1.11-1.88c.19-1.07-.72-2-1.57-2.66a20.94,20.94,0,0,1-3.77-3.38c-1.54-2-3.29-6.56-.23-8.13a2.47,2.47,0,0,0-2.35,1.48,7.46,7.46,0,0,0-.54,2.94,6.26,6.26,0,0,1,.76-9.39c.92-.68,2.09-1.19,2.5-2.26C71.57,137.64,70.93,136.39,70.48,134.59Z" style="fill:#263238"></path><path d="M98.47,119.85c-5.58-.84-11.08,7.05-8.67,14S107.21,120.64,98.47,119.85Z" style="fill:#0072FF"></path><g id="freepik--Arm--inject-77"><path d="M211.29,178.78c-1.72,1.2-8.58,6.72-12.59,8.25-1.92.73-2.33.07-2.12-.55s1-1.48,1.15-1.94c.36-.92,2.67-4.84,1.4-6.59s-2,.16-4.24,2.92-4.72,3.91-6.6,7h0c-1.88,3.14-2.16,5-6.56,8.05s-14.87,8.48-14.87,8.48l-23-20.11c-9.43-8.22-16.59-7.06-16.59-7.06l3.55,25.23,30.85,22.26c6,4.44,8.5,1.78,16.25-4.15,8.18-6.25,11.25-10.59,16.59-15s9.68-6.24,12.82-8.61c3.36-2.55,4-3.88,5.07-6.85,1-2.79-.08-7,.51-8.64S213,177.57,211.29,178.78Z" style="fill:#f0997a"></path><path d="M161.76,199.14c-4.46-4-10.39-9.41-13.44-12.09-4.84-4.25-7.25-6.19-10.06-7.64-3.63-1.87-5.84-2.37-11.57-2.57l3.05,26.27s13.18,11.21,23.13,17.72C164.52,209,161.76,199.14,161.76,199.14Z" style="fill:#455a64"></path></g><g id="freepik--Chest--inject-77"><path d="M84.23,267.25c-.69-6.4-.31-21.34.56-31A86.09,86.09,0,0,0,83.23,212a75.92,75.92,0,0,1-1.44-27.71A86.67,86.67,0,0,1,96.89,178a214.93,214.93,0,0,1,23.91-2.13l5.89.93c6.59,2.92,14,12,19.16,20.1,4.16,6.61,4.25,15.07-1.74,20.52l0,10.81s3.1,6.06,5.31,11.88c-1.57,10-13.35,22.15-29,25.4C109.82,267.76,102.59,269.35,84.23,267.25Z" style="fill:#f0f0f0"></path><path d="M125.53,220.8s-5.13,6.22-15.21,5C99.92,224.54,98,215.9,98,215.9s-.54,11.29,11.88,12.8A15,15,0,0,0,125.53,220.8Z" style="fill:#e0e0e0"></path></g><g id="freepik--Pencil--inject-77"><path d="M259.9,264.51l13.7,32.57a1.07,1.07,0,0,1-1.52,1.35l-30.87-17.62Z" style="fill:#ffa8a7"></path><path d="M272.08,298.43a1.07,1.07,0,0,0,1.52-1.35l-2.68-6.36h0a5.94,5.94,0,0,1-4.84,3.86l-.61.08Z" style="fill:#0072FF"></path><path d="M129.24,154.47l2.17,2.45,2.61,3L241.21,280.81a15.76,15.76,0,0,0,11.06-3.29c4.89-3.52,8.17-9.08,7.62-13L152.76,143.66l-5-5.65C150.79,141.85,132.34,158.28,129.24,154.47Z" style="fill:#0072FF"></path><path d="M129.24,154.47l2.17,2.45,2.61,3L241.21,280.81a15.76,15.76,0,0,0,11.06-3.29c4.89-3.52,8.17-9.08,7.62-13L152.76,143.66l-5-5.65C150.79,141.85,132.34,158.28,129.24,154.47Z" style="fill:#fff;opacity:0.30000000000000004"></path><path d="M255,275.2a22.39,22.39,0,0,1-2.71,2.32,15.75,15.75,0,0,1-11.05,3.29h0L142.43,169.38c1.45,1.43,5.62-.53,9.73-3.57a29.57,29.57,0,0,0,3.32-2.83Z" style="fill:#0072FF;opacity:0.4"></path><path d="M137.47,163.82l4.86,5.45c1.35,1.63,5.63-.35,9.83-3.46,5.6-4.11,10.43-10.93,8.64-13.09l-3.58-4-1.3-1.41c1.79,2.16-3,9-8.63,13.09-4,3-8.15,4.91-9.65,3.6h0A.49.49,0,0,1,137.47,163.82Z" style="fill:#ebebeb"></path><path d="M138.7,165.17c3.14,3.78,21.59-12.75,18.45-16.54l-4.84-5.48c3.14,3.79-15.31,20.33-18.45,16.54Z" style="fill:#0072FF"></path><path d="M129.24,154.47l4.78,5.41c3.06,3.74,21-12.07,18.74-16.22a1.05,1.05,0,0,0-.15-.24L147.75,138C150.79,141.85,132.34,158.28,129.24,154.47Z" style="fill:#ebebeb"></path><path d="M155.48,163a29.57,29.57,0,0,1-3.32,2.83c-4.09,3-8.26,5-9.72,3.58h0L134,159.89l-2.6-3-2.18-2.45c1.74,2.13,8.28-2.08,13.17-6.87.3.1.31.31,0,.63Z" style="opacity:0.15"></path><path d="M273.25,298.34a1,1,0,0,1-1.18.08l-30.85-17.61a15.75,15.75,0,0,0,11.05-3.29A22.39,22.39,0,0,0,255,275.2l0,0C261.6,285.58,267.93,294.61,273.25,298.34Z" style="opacity:0.15"></path><path d="M119,142.72l10.25,11.75c1.33,1.63,5.57-.3,9.76-3.37,5.61-4.09,10.5-10.9,8.75-13.09v0l-10.33-11.82c-4.07-4.56-14.34,2.54-18.17,9.37C117.78,138.08,117.44,140.66,119,142.72Z" style="fill:#ffa8a7"></path><path d="M127.38,142.6c5.56-2.71,10.32-8.66,10.65-13.28a4.34,4.34,0,0,0-1.33-3.79c-4.45-3.16-13.84,3.54-17.46,10-1.43,2.5-1.77,5-.33,7.07C120.46,144.31,123.62,144.44,127.38,142.6Z" style="fill:#f28f8f"></path></g><g id="freepik--Head--inject-77"><path d="M140.68,127.29c-.48-6.46-7.7-7.23-9.63-7.14a9.18,9.18,0,0,1-7.21-3.62,9.2,9.2,0,0,0-8.69-3.25c-5.23,1-4.18,3.23-8.63,4.4-4,1-6.36,1.56-10.32,4.42-8.15,5.86-10.37,17.47-5.67,28.53,2.41,5.69,5.6,8.48,9.47,13.32l4,.29c1.55-3.35,5-2.47,8.17-3,2.07-.77,3.37-2.94,5.45-3.71s4.46.06,6.69-.17c1.74-.19,3.54-1.09,5.29-.52,4,1.93,10.32-1.19,10.18-5.91-.06-1.43-.75-2.86-.38-4.25.48-1.81,2.51-2.69,3.67-4.18a4.91,4.91,0,0,0,.1-5.89C140.52,133.23,141,131,140.68,127.29Z" style="fill:#263238"></path><path d="M121.4,176c-1.79-.42-2.32-.89-2.23-3l0-2.77c3.43.22,6.51-.22,8.56-1.54,3.43-2.21,6.53-5.55,7.1-17,.24-4.62-1-6.86-.84-7.9a29.78,29.78,0,0,0,.23-6.4c-.17-2-.56-3.41-2.37-4.57a14.46,14.46,0,0,0-3.36-1.43,10.78,10.78,0,0,1-2.39-1,3.39,3.39,0,0,1-1.51-2,7.75,7.75,0,0,0-.23,3.79,3.6,3.6,0,0,0,2.44,2.71,5,5,0,0,1-6.71-2.27c-.33-.67-.51-1.41-.83-2.09-2-4.29-7.47-3.52-10.69-1.2a.79.79,0,0,0-.3.3,1,1,0,0,0,0,.58,10,10,0,0,1-5,10.53,11.44,11.44,0,0,1,.93,4.5,4.89,4.89,0,0,1-.39,2.11,2.26,2.26,0,0,1-1.6,1.32c-1.62.28-1.86-1.72-2.62-2.69a6.53,6.53,0,0,0-2.82-2.13,4.87,4.87,0,0,0-5.63,1.39c-2.12,2.74-2.71,7.34.76,11.61s7.94,1.73,8,.94c0,0-.09,12.68-.15,14.8s.09,4.35-2.9,5.57c1.91,2.33,8.25,8.57,20.08,6.25C125.58,182.59,121.4,176,121.4,176Z" style="fill:#ffbda7"></path><path d="M94.51,155a1.88,1.88,0,1,0,2-1.73A1.88,1.88,0,0,0,94.51,155Z" style="fill:#0072FF"></path><path d="M131.63,141.35l-4.54-1.55a2.31,2.31,0,0,1,3-1.54A2.53,2.53,0,0,1,131.63,141.35Z" style="fill:#263238"></path><path d="M110.37,142.53l4.16-2.5a2.32,2.32,0,0,0-3.26-.89A2.55,2.55,0,0,0,110.37,142.53Z" style="fill:#263238"></path><path d="M119.19,170.2c-7.58-.91-14.84-3.13-16.6-7.81a7.77,7.77,0,0,0,4.2,6.56,27.5,27.5,0,0,0,12.38,3.48Z" style="fill:#f0997a"></path><polygon points="129.29 151.16 122.92 154.06 121.45 141.67 129.29 151.16" style="fill:#f0997a"></polygon><path d="M123.57,158.24a7.34,7.34,0,0,0-2.15-.18,8.6,8.6,0,0,1-1.88-.32,8.92,8.92,0,0,1-3.07-1.74c-.16-.14-.25,0-.21.16a2.1,2.1,0,0,0,.29.53,5,5,0,0,0,2.79,1.84,8.65,8.65,0,0,0,2.26.4,7.46,7.46,0,0,0,1.25,0,1.12,1.12,0,0,0,.81-.32A.27.27,0,0,0,123.57,158.24Z" style="fill:#b16668"></path><path d="M116.35,145.18a2,2,0,1,1-1.9-2.11A2,2,0,0,1,116.35,145.18Z" style="fill:#263238"></path><path d="M130.76,144.75a2,2,0,1,1-1.9-2.12A2,2,0,0,1,130.76,144.75Z" style="fill:#263238"></path></g><path d="M186.21,191.43a4.2,4.2,0,0,0-1.56-3.74c.21-.95.35-1.85.64-2.78a1.76,1.76,0,0,0,.13-.78c-.26-2.17-3.23-.43-3.94.36a13.66,13.66,0,0,0-1.47,1.93c0-.45.51-2.52.13-2.83-1.38-1.12-3.07.51-3.73,1.7a16,16,0,0,0-1.15,3.33,17.25,17.25,0,0,1-4.75,7.64,11.47,11.47,0,0,1-2.6,1.81l-2.66-2.95s-.47,1.25-1,2.36a25.82,25.82,0,0,1-3.22,5.24,25.46,25.46,0,0,1-7.12,4.7C140,214.08,127,220.14,127,220.14c-9.71-7.88-19.82-17.17-31.06-27.3-3.11-2.8-8.61-7.34-14.12-7.76a12.51,12.51,0,0,0-5.12,8.53c-1.32,8.73.79,14.34,7,20.49a193.63,193.63,0,0,0,31,24.93c6.72,4.22,10.8,6,17.86,1.85,13.81-8.21,17.39-11.09,33.91-22.7,3.09-2.17,13.26-6.55,15.23-9.77a55.28,55.28,0,0,0,4.69-9.78c.69-1.88,1.13-3.95-.06-5.74a1.26,1.26,0,0,1-.22-.47,1.09,1.09,0,0,1,.06-.44A3.33,3.33,0,0,0,186.21,191.43Z" style="fill:#ffbda7"></path><path d="M81.79,184.29c-4.86,4.12-6.89,8.36-6.62,15,.22,5.12,2.75,9.42,7.32,14.8s14.83,13.35,14.83,13.35,5.32.07,11.1-6.47,6.56-11,6.56-11-6.12-5.67-12.3-11.23C96.12,192.79,88.75,185.72,81.79,184.29Z" style="fill:#455a64"></path></g></g></g><g id="freepik--speech-bubble-1--inject-77"><g id="freepik--speech-bubble--inject-77"><g id="freepik--speech-bubble--inject-77"><path d="M232.1,141.33a28.37,28.37,0,0,1-19.3,8.08l-3.26-.12a28.47,28.47,0,0,1,.67-56.75l3.26,0a28.47,28.47,0,0,1,18.63,48.83Z" style="fill:#fff"></path><path d="M234.27,99.31a30.91,30.91,0,0,0-47.44,39.29l-4,8.75a1.8,1.8,0,0,0,2.35,2.39L194,146a30.91,30.91,0,0,0,40.24-46.64Zm-2.13,42a28.38,28.38,0,0,1-19.29,8.11l-3.26-.11a28.47,28.47,0,0,1,.57-56.76l3.26,0a28.48,28.48,0,0,1,18.72,48.8Z" style="fill:#455a64"></path></g><g id="freepik--Check--inject-77"><path d="M208.19,138.57a4.44,4.44,0,0,1-3.26-1.42L194.8,126.34a4.47,4.47,0,1,1,6.52-6.11l6.58,7,15.56-19.71a4.47,4.47,0,0,1,7,5.54L211.7,136.87a4.46,4.46,0,0,1-3.32,1.69Z" style="fill:#0072FF"></path></g></g></g></svg>
